<svg xmlns="http://www.w3.org/2000/svg" viewBox="0 0 37.95 37.95"><defs><style>.cls-1{fill:#fbb14e;}.cls-2{fill:none;}.cls-2,.cls-3{stroke:#000;stroke-miterlimit:10;stroke-width:0.5px;}.cls-3{fill:#1f1700;}</style></defs><g id="Layer_2" data-name="Layer 2"><g id="Layer_1-2" data-name="Layer 1"><rect class="cls-1" width="37.95" height="37.95" rx="11.86"/><path class="cls-2" d="M10.1,20.08a23.82,23.82,0,0,1-.7-6.64,5,5,0,0,1,.24-1.55c.88-2.4,3.86-3.26,5-3.54A24.58,24.58,0,0,0,20,8.14,25.11,25.11,0,0,0,25.5,6.66a1.85,1.85,0,0,1-.21,1.24,1.92,1.92,0,0,1-1.8.88,4.46,4.46,0,0,1,2,.42,5.05,5.05,0,0,1,2.23,2.4c1.62,3.13.07,7.17-.18,7.77a18.13,18.13,0,0,0-2.26-2.5,18.61,18.61,0,0,0-2.47-2,2,2,0,0,1-.85-.53,2.55,2.55,0,0,1-.53-2.12,3.68,3.68,0,0,1-1,.5,3.88,3.88,0,0,1-1.21.14l-3-.07a5.55,5.55,0,0,0-1.83.78,4.5,4.5,0,0,0-1.56,1.55,4.32,4.32,0,0,0-.56,2.26A2.22,2.22,0,0,1,10.7,20Z"/><path class="cls-2" d="M11,24.94a1.36,1.36,0,0,1-.77.11,1.43,1.43,0,0,1-.66-.27c-1.11-2.13-1.25-4-.5-4.52a1.27,1.27,0,0,1,1-.18"/><path class="cls-2" d="M10.1,21.63a15.52,15.52,0,0,0,1.3,4.05,15.75,15.75,0,0,0,3.6,4.8,7.5,7.5,0,0,0,3.55,1,7.29,7.29,0,0,0,3.71-.9,12.32,12.32,0,0,0,2.07-2A13.2,13.2,0,0,0,27.05,22"/><path class="cls-2" d="M27.58,19.37l.16.91a1.48,1.48,0,0,1,1.3.29c.63.66.2,2.43-1.3,4.35a1.75,1.75,0,0,1-.69.14,2,2,0,0,1-.58-.09"/><path class="cls-2" d="M13.72,18.49a2,2,0,0,0,2.7-.95"/><path class="cls-2" d="M21,17.65a2,2,0,0,0,1.07.91,2.11,2.11,0,0,0,1.7-.18"/><ellipse class="cls-3" cx="15.55" cy="20.31" rx="0.4" ry="0.87"/><ellipse class="cls-3" cx="22.07" cy="20.31" rx="0.4" ry="0.87"/><path class="cls-2" d="M18.58,20.82a2.92,2.92,0,0,1,0,2.08,2.57,2.57,0,0,1-.32.55"/><path class="cls-2" d="M14.77,27.35a5.46,5.46,0,0,1,4-1.69,5.35,5.35,0,0,1,3.45,1.43"/><line class="cls-2" x1="17.95" y1="27.09" x2="18.93" y2="27.09"/></g></g></svg>