<svg xmlns="http://www.w3.org/2000/svg" viewBox="0 0 37.95 37.95"><defs><style>.cls-1{fill:#3bccff;}.cls-2{fill:none;stroke:#1c1c1c;stroke-miterlimit:10;stroke-width:0.5px;}</style></defs><g id="Layer_2" data-name="Layer 2"><g id="Layer_1-2" data-name="Layer 1"><rect class="cls-1" width="37.95" height="37.95" rx="11.86"/><path class="cls-2" d="M10.17,20a23.79,23.79,0,0,1-.7-6.58,4.62,4.62,0,0,1,.25-1.54c.86-2.38,3.82-3.24,4.94-3.51A24.78,24.78,0,0,0,20,8.13a24.75,24.75,0,0,0,5.5-1.47,1.82,1.82,0,0,1-.21,1.23,1.92,1.92,0,0,1-1.79.87,4.42,4.42,0,0,1,2,.42,5,5,0,0,1,2.21,2.38c1.61,3.1.07,7.11-.18,7.71a18.65,18.65,0,0,0-4.69-4.41,2.2,2.2,0,0,1-.84-.53,2.5,2.5,0,0,1-.53-2.1,3.44,3.44,0,0,1-1.05.49,3.74,3.74,0,0,1-1.19.14l-3-.07a5.67,5.67,0,0,0-1.82.77,4.7,4.7,0,0,0-1.54,1.54,4.27,4.27,0,0,0-.56,2.25,2.26,2.26,0,0,1-.14,1.36,2.35,2.35,0,0,1-1.4,1.23Z"/><path class="cls-2" d="M11.09,24.8a1.46,1.46,0,0,1-.76.1,1.44,1.44,0,0,1-.66-.26c-1.1-2.12-1.24-3.93-.5-4.49a1.27,1.27,0,0,1,1-.18"/><path class="cls-2" d="M10.17,21.51a15.06,15.06,0,0,0,1.29,4A15.36,15.36,0,0,0,15,30.29a7.32,7.32,0,0,0,7.2.11,12.57,12.57,0,0,0,2.05-2A13.09,13.09,0,0,0,27,21.86"/><path class="cls-2" d="M27.51,19.27l.16.9c.84-.09,1.16.16,1.29.29.63.66.2,2.41-1.29,4.31a1.91,1.91,0,0,1-.68.15,2,2,0,0,1-.58-.09"/><path class="cls-2" d="M16.6,19.89a2,2,0,0,0-1.28-.55,2.12,2.12,0,0,0-1.56.67"/><path class="cls-2" d="M23.66,20.16a2.09,2.09,0,0,0-1.28-.54,2.06,2.06,0,0,0-1.56.66"/><path class="cls-2" d="M23.34,18.66a2,2,0,0,0-1.38.12,2.06,2.06,0,0,0-1.07,1.32"/><path class="cls-2" d="M16.6,20a2,2,0,0,0-.6-1.25,2.1,2.1,0,0,0-1.61-.53"/><path class="cls-2" d="M18.58,20.71a2.89,2.89,0,0,1,0,2.07,2.74,2.74,0,0,1-.31.54"/><path class="cls-2" d="M15.78,26.4a4.66,4.66,0,0,1,2.8-1.07,4.74,4.74,0,0,1,3.05,1A5.51,5.51,0,0,1,19,29.82a5.52,5.52,0,0,1-3.15-3.16Z"/><path class="cls-2" d="M17.06,28.54a2.53,2.53,0,0,1,1.52-.69,2.63,2.63,0,0,1,2,.72"/></g></g></svg>