<svg xmlns="http://www.w3.org/2000/svg" viewBox="0 0 37.95 37.95"><defs><style>.cls-1{fill:#a5f060;}.cls-2{fill:none;}.cls-2,.cls-3{stroke:#1c1c1c;stroke-miterlimit:10;stroke-width:0.5px;}.cls-3{fill:#1f1700;}</style></defs><g id="Layer_2" data-name="Layer 2"><g id="Layer_1-2" data-name="Layer 1"><rect class="cls-1" width="37.95" height="37.95" rx="11.86"/><path class="cls-2" d="M10.17,20a23.79,23.79,0,0,1-.7-6.58,4.62,4.62,0,0,1,.25-1.54c.86-2.38,3.82-3.24,4.94-3.51A24.78,24.78,0,0,0,20,8.13a24.75,24.75,0,0,0,5.5-1.47,1.82,1.82,0,0,1-.21,1.23,1.92,1.92,0,0,1-1.79.87,4.42,4.42,0,0,1,2,.42,5,5,0,0,1,2.21,2.38c1.61,3.1.07,7.11-.17,7.71a20,20,0,0,0-2.25-2.49,18.94,18.94,0,0,0-2.45-1.92,2.2,2.2,0,0,1-.84-.53,2.5,2.5,0,0,1-.53-2.1,3.44,3.44,0,0,1-1.05.49,3.74,3.74,0,0,1-1.19.14l-3-.07a5.67,5.67,0,0,0-1.82.77,4.7,4.7,0,0,0-1.54,1.54,4.27,4.27,0,0,0-.56,2.25,2.26,2.26,0,0,1-.14,1.36,2.35,2.35,0,0,1-1.4,1.23Z"/><path class="cls-2" d="M11.09,24.8a1.46,1.46,0,0,1-.76.1,1.44,1.44,0,0,1-.66-.26c-1.1-2.12-1.24-3.93-.49-4.49a1.23,1.23,0,0,1,1-.18"/><path class="cls-2" d="M10.17,21.51a15.06,15.06,0,0,0,1.29,4A15.36,15.36,0,0,0,15,30.29a7.32,7.32,0,0,0,7.2.11,12.18,12.18,0,0,0,2.05-2A13.09,13.09,0,0,0,27,21.86"/><path class="cls-2" d="M27.52,19.27l.15.9c.84-.09,1.16.16,1.29.29.63.66.2,2.41-1.29,4.31a1.91,1.91,0,0,1-.68.15,2,2,0,0,1-.58-.09"/><path class="cls-2" d="M16.6,18.4a2,2,0,0,0-1.28-.55,2.12,2.12,0,0,0-1.56.67"/><path class="cls-2" d="M23.66,18.4a2,2,0,0,0-1.28-.55,2.1,2.1,0,0,0-1.56.67"/><ellipse class="cls-3" cx="15.58" cy="20.2" rx="0.39" ry="0.86"/><ellipse class="cls-3" cx="22.04" cy="20.2" rx="0.39" ry="0.86"/><path class="cls-2" d="M18.58,20.71a2.84,2.84,0,0,1,0,2.07,2.74,2.74,0,0,1-.31.54"/><path class="cls-2" d="M15.18,25.33A3.92,3.92,0,0,0,19,27.57,4.09,4.09,0,0,0,22,25.5"/></g></g></svg>