<svg xmlns="http://www.w3.org/2000/svg" viewBox="0 0 37.95 37.95"><defs><style>.cls-1{fill:#b16ebb;}.cls-2{fill:none;}.cls-2,.cls-3{stroke:#000;stroke-miterlimit:10;stroke-width:0.5px;}.cls-3{fill:#1f1700;}</style></defs><g id="Layer_2" data-name="Layer 2"><g id="Layer_1-2" data-name="Layer 1"><rect class="cls-1" width="37.95" height="37.95" rx="11.86"/><path class="cls-2" d="M11.1,19.71a23.23,23.23,0,0,1-.69-6.46,4.82,4.82,0,0,1,.24-1.51c.85-2.32,3.75-3.17,4.85-3.43a24.42,24.42,0,0,0,5.18-.21,23.91,23.91,0,0,0,5.39-1.44,1.78,1.78,0,0,1-.2,1.2,1.86,1.86,0,0,1-1.75.86,4.31,4.31,0,0,1,2,.41,4.85,4.85,0,0,1,2.17,2.34c1.58,3,.07,7-.17,7.56a18.51,18.51,0,0,0-2.2-2.44,18.31,18.31,0,0,0-2.4-1.89,2.13,2.13,0,0,1-.83-.52,2.42,2.42,0,0,1-.51-2.06,3.69,3.69,0,0,1-1,.48,3.65,3.65,0,0,1-1.17.14L17,12.67a5.5,5.5,0,0,0-1.79.76,4.52,4.52,0,0,0-1.51,1.51,4.27,4.27,0,0,0-.55,2.2,2.17,2.17,0,0,1-.13,1.34,2.34,2.34,0,0,1-1.38,1.2Z"/><path class="cls-2" d="M11.1,19.71a1.26,1.26,0,0,0-1,.17c-.73.56-.59,2.33.49,4.41a1.45,1.45,0,0,0,.64.26,1.39,1.39,0,0,0,.75-.11l.39-.13"/><path class="cls-2" d="M28.1,19l.16.88a1.42,1.42,0,0,1,1.26.28c.61.64.19,2.36-1.26,4.23a1.73,1.73,0,0,1-.67.14,1.94,1.94,0,0,1-.57-.09"/><path class="cls-2" d="M14.62,18.17a1.95,1.95,0,0,0,2.63-.93"/><path class="cls-2" d="M21.66,17.35a1.94,1.94,0,0,0,1,.88,2.05,2.05,0,0,0,1.65-.17"/><ellipse class="cls-3" cx="16.4" cy="19.94" rx="0.39" ry="0.84"/><ellipse class="cls-3" cx="22.73" cy="19.94" rx="0.39" ry="0.84"/><path class="cls-2" d="M22.4,30.44a5.91,5.91,0,0,1-2.56.59,6.11,6.11,0,0,1-2.77-.69l-2.45-4.83A12.68,12.68,0,0,1,16,24.21a13.42,13.42,0,0,1,3.69-2.13H20a13.28,13.28,0,0,1,3.69,2.13,12.68,12.68,0,0,1,1.39,1.3Z"/><polyline class="cls-2" points="14.62 25.51 12.63 25.12 11.47 21.22"/><polyline class="cls-2" points="25.05 25.51 26.93 25.13 28.1 21.36"/><polyline class="cls-2" points="26.93 25.13 28.74 26.37 25.57 32.45 22.48 30.3"/><polyline class="cls-2" points="12.79 25.13 10.99 26.37 14.15 32.45 17.25 30.3"/><line class="cls-2" x1="11.92" y1="25.73" x2="15.22" y2="31.71"/><line class="cls-2" x1="27.8" y1="25.73" x2="24.35" y2="31.71"/><circle class="cls-2" cx="19.84" cy="25.88" r="2.28"/><circle class="cls-2" cx="19.69" cy="25.88" r="1.08"/></g></g></svg>