<svg xmlns="http://www.w3.org/2000/svg" viewBox="0 0 37.95 37.95"><defs><style>.cls-1{fill:#ff6074;}.cls-2{fill:none;}.cls-2,.cls-3{stroke:#000;stroke-miterlimit:10;stroke-width:0.5px;}.cls-3{fill:#1f1700;}</style></defs><g id="Layer_2" data-name="Layer 2"><g id="Layer_1-2" data-name="Layer 1"><rect class="cls-1" width="37.95" height="37.95" rx="11.86"/><path class="cls-2" d="M10.17,20a23.79,23.79,0,0,1-.7-6.58,4.73,4.73,0,0,1,.25-1.55c.86-2.37,3.82-3.23,4.94-3.5A24.78,24.78,0,0,0,20,8.13a24.75,24.75,0,0,0,5.5-1.47,1.82,1.82,0,0,1-.21,1.23,1.92,1.92,0,0,1-1.79.87,4.42,4.42,0,0,1,2,.42,5,5,0,0,1,2.21,2.38c1.61,3.1.07,7.11-.17,7.71a20,20,0,0,0-2.25-2.49,18.94,18.94,0,0,0-2.45-1.92,2.2,2.2,0,0,1-.84-.53,2.5,2.5,0,0,1-.53-2.1,3.44,3.44,0,0,1-1.05.49,3.74,3.74,0,0,1-1.19.14l-3-.07a5.67,5.67,0,0,0-1.82.77,4.7,4.7,0,0,0-1.54,1.54,4.36,4.36,0,0,0-.56,2.24,2.29,2.29,0,0,1-.14,1.37,2.39,2.39,0,0,1-1.4,1.23Z"/><path class="cls-2" d="M11.09,24.8a1.46,1.46,0,0,1-.76.1,1.34,1.34,0,0,1-.65-.26c-1.11-2.12-1.25-3.93-.5-4.49a1.23,1.23,0,0,1,1-.18"/><path class="cls-2" d="M26.75,22.29a2.93,2.93,0,0,1-2.16,2,3,3,0,0,1-2.27-.49l-2.64-2.21a1.4,1.4,0,0,0-1.1-.38,1.42,1.42,0,0,0-.93.52L15,23.8a3.21,3.21,0,0,1-2.55.42,3.29,3.29,0,0,1-2.3-2.71,15.67,15.67,0,0,0,1.29,4A15.46,15.46,0,0,0,15,30.29a7.27,7.27,0,0,0,7.19.1,11.73,11.73,0,0,0,2.05-2A13.09,13.09,0,0,0,27,21.86Z"/><path class="cls-2" d="M27.52,19.27l.15.9c.84-.09,1.16.16,1.29.29.63.66.2,2.41-1.29,4.31a1.91,1.91,0,0,1-.68.15,1.64,1.64,0,0,1-.58-.1"/><path class="cls-2" d="M13.77,18.4a2,2,0,0,0,2.67-.95"/><path class="cls-2" d="M20.94,17.57a2,2,0,0,0,2.75.71"/><ellipse class="cls-3" cx="15.58" cy="20.2" rx="0.39" ry="0.86"/><ellipse class="cls-3" cx="22.04" cy="20.2" rx="0.39" ry="0.86"/><path class="cls-2" d="M17.23,25.19a5.23,5.23,0,0,0,1.5.21,5.1,5.1,0,0,0,1.76-.34"/><path class="cls-2" d="M17.23,26.52a5.23,5.23,0,0,0,1.5.21,5.1,5.1,0,0,0,1.76-.34"/><path class="cls-2" d="M17.23,27.65a5.6,5.6,0,0,0,1.5.21,5.06,5.06,0,0,0,1.76-.35"/></g></g></svg>