<svg xmlns="http://www.w3.org/2000/svg" xmlns:xlink="http://www.w3.org/1999/xlink" viewBox="0 0 322.54 322.54"><defs><style>.cls-1{fill:#fff;}.cls-2,.cls-6,.cls-8,.cls-9{fill-rule:evenodd;}.cls-2{fill:url(#linear-gradient);}.cls-3{fill:url(#linear-gradient-2);}.cls-4{fill:url(#linear-gradient-3);}.cls-5{fill:url(#linear-gradient-4);}.cls-6{fill:url(#linear-gradient-5);}.cls-7{fill:url(#linear-gradient-6);}.cls-8{fill:url(#linear-gradient-7);}.cls-9{fill:url(#linear-gradient-8);}.cls-10{fill:url(#linear-gradient-9);}</style><linearGradient id="linear-gradient" x1="153.37" y1="179.27" x2="238.26" y2="179.27" gradientUnits="userSpaceOnUse"><stop offset="0" stop-color="#dd95a7"/><stop offset="1" stop-color="#da618f"/></linearGradient><linearGradient id="linear-gradient-2" x1="146.32" y1="161.99" x2="172.38" y2="161.99" xlink:href="#linear-gradient"/><linearGradient id="linear-gradient-3" x1="159.35" y1="161.99" x2="172.38" y2="161.99" xlink:href="#linear-gradient"/><linearGradient id="linear-gradient-4" x1="79.65" y1="133.26" x2="239.05" y2="133.26" xlink:href="#linear-gradient"/><linearGradient id="linear-gradient-5" x1="159.35" y1="133.26" x2="239.05" y2="133.26" xlink:href="#linear-gradient"/><linearGradient id="linear-gradient-6" x1="71.05" y1="133.26" x2="81.22" y2="133.26" xlink:href="#linear-gradient"/><linearGradient id="linear-gradient-7" x1="48.69" y1="115.1" x2="248.17" y2="115.1" xlink:href="#linear-gradient"/><linearGradient id="linear-gradient-8" x1="159.35" y1="115.1" x2="248.17" y2="115.1" xlink:href="#linear-gradient"/><linearGradient id="linear-gradient-9" x1="237.86" y1="220.23" x2="252.63" y2="220.23" xlink:href="#linear-gradient"/></defs><g id="Layer_2" data-name="Layer 2"><g id="Layer_1-2" data-name="Layer 1"><circle class="cls-1" cx="161.27" cy="161.27" r="161.27"/><polygon class="cls-2" points="238.26 228.41 159.84 228.41 153.38 228.41 153.38 221.94 153.38 130.12 166.31 130.12 166.31 215.47 238.26 215.47 238.26 228.41"/><rect class="cls-3" x="146.32" y="134.75" width="26.06" height="54.46"/><rect class="cls-4" x="159.35" y="134.76" width="13.03" height="54.46"/><rect class="cls-5" x="79.65" y="96.62" width="159.4" height="73.28" rx="8.84"/><path class="cls-6" d="M159.35,96.62h70.86a8.86,8.86,0,0,1,8.84,8.83v55.61a8.87,8.87,0,0,1-8.84,8.84H159.35Z"/><rect class="cls-7" x="71.05" y="109.73" width="10.17" height="47.05" rx="1.68"/><path class="cls-8" d="M54.5,84.92H239.33a8.87,8.87,0,0,1,8.84,8.84v42.67a8.87,8.87,0,0,1-8.84,8.84H97.61c-4.85,0-10.09-5.06-13.15-8.84L50,93.76C46.93,90,49.64,84.92,54.5,84.92Z"/><path class="cls-9" d="M159.35,84.92h80a8.87,8.87,0,0,1,8.84,8.84v42.67a8.87,8.87,0,0,1-8.84,8.84h-80Z"/><rect class="cls-10" x="237.86" y="176.95" width="14.77" height="86.56" rx="1.31"/></g></g></svg>