<svg xmlns="http://www.w3.org/2000/svg" xmlns:xlink="http://www.w3.org/1999/xlink" viewBox="0 0 72.09 72.09"><defs><style>.cls-1{fill:#fff;}.cls-2{fill:url(#linear-gradient);}.cls-3{fill:url(#linear-gradient-2);}.cls-4{fill:url(#linear-gradient-3);}</style><linearGradient id="linear-gradient" x1="9.03" y1="35.97" x2="65.02" y2="35.97" gradientUnits="userSpaceOnUse"><stop offset="0" stop-color="#dd95a7"/><stop offset="1" stop-color="#da608e"/></linearGradient><linearGradient id="linear-gradient-2" x1="15.03" y1="48.92" x2="24.48" y2="48.92" xlink:href="#linear-gradient"/><linearGradient id="linear-gradient-3" x1="46.38" y1="48.65" x2="55.83" y2="48.65" xlink:href="#linear-gradient"/></defs><g id="Layer_2" data-name="Layer 2"><g id="Layer_1-2" data-name="Layer 1"><circle class="cls-1" cx="36.05" cy="36.05" r="36.05"/><path class="cls-2" d="M65,41.51c0,4.09-3.9,7.41-8.7,7.41H17.73c-4.8,0-8.7-3.32-8.7-7.41V30.43c0-4.1,3.9-7.42,8.7-7.42H56.32c4.8,0,8.7,3.32,8.7,7.42Z"/><path class="cls-3" d="M24.48,48.92a4.73,4.73,0,1,1-4.72-4.72A4.72,4.72,0,0,1,24.48,48.92Z"/><path class="cls-1" d="M22.42,48.92a2.66,2.66,0,1,1-2.66-2.65A2.66,2.66,0,0,1,22.42,48.92Z"/><path class="cls-4" d="M55.83,48.65a4.73,4.73,0,1,1-4.73-4.72A4.73,4.73,0,0,1,55.83,48.65Z"/><path class="cls-1" d="M53.76,48.65A2.66,2.66,0,1,1,51.1,46,2.66,2.66,0,0,1,53.76,48.65Z"/><rect class="cls-1" x="37.94" y="25.86" width="7.08" height="10.39"/><rect class="cls-1" x="20.77" y="25.86" width="7.08" height="10.39"/><rect class="cls-1" x="29.36" y="25.86" width="7.08" height="10.39"/><path class="cls-1" d="M19.27,25.86H16.45a4.58,4.58,0,0,0-4.57,4.57v5.82h7.39Z"/><path class="cls-1" d="M49.35,25.86H46.53V36.25h7.38V30.43A4.57,4.57,0,0,0,49.35,25.86Z"/><path class="cls-1" d="M29.36,45.86a.38.38,0,0,1-.38-.38V38.06a.38.38,0,0,1,.38-.38.37.37,0,0,1,.37.38v7.42A.37.37,0,0,1,29.36,45.86Z"/><path class="cls-1" d="M36.8,45.86a.38.38,0,0,1-.38-.38V38.06a.38.38,0,0,1,.76,0v7.42A.38.38,0,0,1,36.8,45.86Z"/><path class="cls-1" d="M33.27,38.64a.58.58,0,0,1-.58.58H31.22a.58.58,0,0,1-.58-.58h0a.58.58,0,0,1,.58-.58h1.47a.58.58,0,0,1,.58.58Z"/></g></g></svg>