<svg xmlns="http://www.w3.org/2000/svg" xmlns:xlink="http://www.w3.org/1999/xlink" viewBox="0 0 72.09 72.09"><defs><style>.cls-1{fill:#fff;}.cls-2{fill:url(#linear-gradient);}.cls-3{fill:url(#linear-gradient-2);}.cls-4{fill:url(#linear-gradient-3);}.cls-5{fill:url(#linear-gradient-4);}.cls-6{fill:url(#linear-gradient-5);}.cls-7{fill:url(#linear-gradient-6);}.cls-8{fill:url(#linear-gradient-7);}.cls-9{fill:url(#linear-gradient-8);}.cls-10{fill:url(#linear-gradient-9);}.cls-11{fill:url(#linear-gradient-10);}.cls-12{fill:url(#linear-gradient-11);}.cls-13{fill:url(#linear-gradient-12);}.cls-14{fill:url(#linear-gradient-13);}.cls-15{fill:url(#linear-gradient-14);}.cls-16{fill:url(#linear-gradient-15);}.cls-17{fill:url(#linear-gradient-16);}.cls-18{fill:#e0e0e0;}</style><linearGradient id="linear-gradient" x1="49.89" y1="30.41" x2="54.99" y2="30.41" gradientUnits="userSpaceOnUse"><stop offset="0" stop-color="#dd95a7"/><stop offset="1" stop-color="#da608e"/></linearGradient><linearGradient id="linear-gradient-2" x1="35.2" y1="35.05" x2="38.07" y2="35.05" xlink:href="#linear-gradient"/><linearGradient id="linear-gradient-3" x1="26.21" y1="43.68" x2="38.07" y2="43.68" xlink:href="#linear-gradient"/><linearGradient id="linear-gradient-4" x1="12.24" y1="49.73" x2="23.47" y2="49.73" xlink:href="#linear-gradient"/><linearGradient id="linear-gradient-5" x1="12.45" y1="44.55" x2="23.47" y2="44.55" xlink:href="#linear-gradient"/><linearGradient id="linear-gradient-6" x1="14.83" y1="34.94" x2="31.89" y2="34.94" xlink:href="#linear-gradient"/><linearGradient id="linear-gradient-7" x1="30.62" y1="34.94" x2="57.62" y2="34.94" xlink:href="#linear-gradient"/><linearGradient id="linear-gradient-8" x1="38.07" y1="31.76" x2="40.39" y2="31.76" xlink:href="#linear-gradient"/><linearGradient id="linear-gradient-9" x1="23.83" y1="16.36" x2="57.62" y2="16.36" xlink:href="#linear-gradient"/><linearGradient id="linear-gradient-10" x1="15.63" y1="26.61" x2="26.61" y2="26.61" xlink:href="#linear-gradient"/><linearGradient id="linear-gradient-11" x1="54.99" y1="26.61" x2="57.62" y2="26.61" xlink:href="#linear-gradient"/><linearGradient id="linear-gradient-12" x1="38.07" y1="26.61" x2="40.39" y2="26.61" xlink:href="#linear-gradient"/><linearGradient id="linear-gradient-13" x1="19.14" y1="38.27" x2="23.36" y2="38.27" xlink:href="#linear-gradient"/><linearGradient id="linear-gradient-14" x1="53.64" y1="42.57" x2="59.85" y2="42.57" xlink:href="#linear-gradient"/><linearGradient id="linear-gradient-15" x1="43.37" y1="48.82" x2="56.41" y2="48.82" xlink:href="#linear-gradient"/><linearGradient id="linear-gradient-16" x1="57.62" y1="37.44" x2="59.65" y2="37.44" xlink:href="#linear-gradient"/></defs><g id="Layer_2" data-name="Layer 2"><g id="Layer_1-2" data-name="Layer 1"><circle class="cls-1" cx="36.05" cy="36.05" r="36.05"/><path class="cls-2" d="M49.89,34l1.42-5.06a2.89,2.89,0,0,1,2.78-2.11H55V34Z"/><path class="cls-3" d="M35.2,39.23v-5.5a2.86,2.86,0,0,1,2.87-2.87h0v8.37Z"/><polygon class="cls-4" points="26.21 39.23 38.07 39.23 38.07 48.14 30.62 48.14 26.21 39.23"/><circle class="cls-5" cx="17.86" cy="49.73" r="5.62"/><circle class="cls-1" cx="17.86" cy="49.73" r="2.89"/><path class="cls-6" d="M18.06,45.5l5.36,2.21a5.52,5.52,0,0,0,0-.71,5.61,5.61,0,0,0-11-1.5Z"/><path class="cls-7" d="M22.67,50.65,15.19,37.48a2.75,2.75,0,0,1,0-2.68l8.65-15.58h2.78L23.56,33.91l8.33,16.74Z"/><path class="cls-8" d="M31.89,50.65H42.72l14.9-8.6V19.22H55V34H48.34a4.71,4.71,0,0,0-3.72,1.82l-6.55,8.47v3.85H30.62Z"/><polygon class="cls-9" points="38.07 44.29 38.07 19.22 40.39 19.22 40.39 41.28 38.07 44.29"/><path class="cls-10" d="M23.83,19.22H57.62v-4a1.76,1.76,0,0,0-1.77-1.76h-16a15.84,15.84,0,0,0-3.5.39l-7.69,1.74a7.46,7.46,0,0,0-4.82,3.59Z"/><polygon class="cls-11" points="23.83 19.22 15.63 33.99 23.61 33.99 23.56 33.91 26.61 19.22 23.83 19.22"/><rect class="cls-12" x="54.99" y="19.22" width="2.63" height="14.77"/><rect class="cls-13" x="38.07" y="19.22" width="2.33" height="14.77"/><path class="cls-14" d="M21,40.62H19.14v-4.7H21a2.35,2.35,0,0,1,2.35,2.35h0A2.35,2.35,0,0,1,21,40.62Z"/><path class="cls-1" d="M18.49,35.92h.66a0,0,0,0,1,0,0v4.7a0,0,0,0,1,0,0h-.66a1.17,1.17,0,0,1-1.17-1.17V37.09A1.17,1.17,0,0,1,18.49,35.92Z"/><rect class="cls-15" x="53.64" y="40.62" width="6.21" height="3.89" rx="1.24"/><circle class="cls-16" cx="49.89" cy="48.82" r="6.52"/><path class="cls-1" d="M53.24,48.82a3.35,3.35,0,1,1-3.35-3.35A3.36,3.36,0,0,1,53.24,48.82Z"/><path class="cls-17" d="M57.62,34.94h.73a1.3,1.3,0,0,1,1.3,1.3v2.41a1.3,1.3,0,0,1-1.3,1.3h-.73a0,0,0,0,1,0,0v-5A0,0,0,0,1,57.62,34.94Z"/><path class="cls-1" d="M16.37,32.66H19.1a1.49,1.49,0,0,0,1.34-.83L24.88,23a1.84,1.84,0,0,0-1.64-2.66h0Z"/><circle class="cls-18" cx="49.03" cy="38.16" r="3.29"/></g></g></svg>