<svg xmlns="http://www.w3.org/2000/svg" viewBox="0 0 101 63.25"><defs><style>.f5624ef0-e91f-46d2-9d17-018be1906d17,.fb0cf674-a761-4ebb-a986-c85d670092a5{fill:#ffd44e;}.a679a4d3-abe8-4f44-bd57-8be584e7b905,.b5917677-a7a7-44b7-8c73-d5c68064cc53,.b770929d-34e2-4069-ac51-ada931c90e82,.b9651fc4-deb6-4c38-87b1-e2f50c52e4f4,.bfc8127d-025e-4a6f-a1e2-ac274847b883,.e8f1a09d-7536-482d-bf03-b764bcc6b91d,.ef3a8e9f-1709-4bbe-b008-ee388cb34ae6,.f5624ef0-e91f-46d2-9d17-018be1906d17{stroke:#fff;}.a679a4d3-abe8-4f44-bd57-8be584e7b905,.b5917677-a7a7-44b7-8c73-d5c68064cc53,.e8f1a09d-7536-482d-bf03-b764bcc6b91d,.f5624ef0-e91f-46d2-9d17-018be1906d17{stroke-miterlimit:10;stroke-width:0.5px;}.a679a4d3-abe8-4f44-bd57-8be584e7b905,.b0a7a9cf-4123-419d-92a9-907ecbf73af8{fill:#5990c8;}.e8f1a09d-7536-482d-bf03-b764bcc6b91d,.f3b56592-a63f-41df-8172-497f6ce45f4c{fill:#f296bf;}.b5917677-a7a7-44b7-8c73-d5c68064cc53,.ed1a7666-534f-4e9e-90b6-22b0e514c0ba{fill:#7bb642;}.bfc8127d-025e-4a6f-a1e2-ac274847b883{fill:none;stroke-width:3px;}.b770929d-34e2-4069-ac51-ada931c90e82,.b9651fc4-deb6-4c38-87b1-e2f50c52e4f4,.bfc8127d-025e-4a6f-a1e2-ac274847b883,.ef3a8e9f-1709-4bbe-b008-ee388cb34ae6{stroke-linecap:round;stroke-linejoin:round;}.b05f83d2-b0cf-48bc-8bfc-ae13b11be9e0{isolation:isolate;}.a2224b83-a8d3-424c-8d67-fb6fa49fc37f{fill:#de5c8e;}.a39b7ed1-917f-4ed3-b575-0fb8ee1e8ba2{fill:#5a5b5d;}.b770929d-34e2-4069-ac51-ada931c90e82,.bc03911b-8da3-4caa-8e9f-dda2f1254e49,.ef3a8e9f-1709-4bbe-b008-ee388cb34ae6{fill:#404041;}.ef3a8e9f-1709-4bbe-b008-ee388cb34ae6{stroke-width:0.25px;}.b9651fc4-deb6-4c38-87b1-e2f50c52e4f4,.e72f2c2d-d299-46d0-8df8-5dad500fbbe8{fill:#231f20;}</style></defs><g id="b2e63cb9-ac52-45db-8a5d-29b224d613de" data-name="Layer 2"><g id="b17d4397-d5fd-4ed8-9402-8142b07dc379" data-name="Layer 1"><rect class="f5624ef0-e91f-46d2-9d17-018be1906d17" x="-3.08" y="45.22" width="16.31" height="0.99" transform="translate(-40.83 42.78) rotate(-80)"/><rect class="a679a4d3-abe8-4f44-bd57-8be584e7b905" x="14.56" y="50.69" width="20.27" height="0.99" transform="translate(-30 66.61) rotate(-80)"/><rect class="e8f1a09d-7536-482d-bf03-b764bcc6b91d" x="16.24" y="29.33" width="0.99" height="17.3" transform="translate(-23.58 47.87) rotate(-80)"/><rect class="b5917677-a7a7-44b7-8c73-d5c68064cc53" x="12.23" y="49.95" width="0.99" height="17.75" transform="translate(-46.42 47.68) rotate(-67.12)"/><path class="bfc8127d-025e-4a6f-a1e2-ac274847b883" d="M10.93,9.88,5.45,22.44v1.39l1-1.06L11.11,10Z"/><path class="bfc8127d-025e-4a6f-a1e2-ac274847b883" d="M10.54,9.67,4.43,20.41l-.27,1.53,1.11-1.05L10.7,9.77Z"/><path class="bfc8127d-025e-4a6f-a1e2-ac274847b883" d="M10.23,9.43,3.58,17.88,3,19.49l1.35-.88,6-9.09Z"/><path class="bfc8127d-025e-4a6f-a1e2-ac274847b883" d="M10,9.08,3,15.44l-.52,1.34,1.11-.44L10,9.24C10,9.16,10,9.16,10,9.08Z"/><path class="bfc8127d-025e-4a6f-a1e2-ac274847b883" d="M9.69,8.72,3.07,12.81l-.72,1,1-.17L9.83,8.91Z"/><path class="bfc8127d-025e-4a6f-a1e2-ac274847b883" d="M9.54,8.36,3.39,10.67l-.85.81,1.18-.07L9.6,8.49Z"/><path class="bfc8127d-025e-4a6f-a1e2-ac274847b883" d="M9.45,7.91,4,8.79l-.92.57,1,.2L9.48,8.09Z"/><path class="bfc8127d-025e-4a6f-a1e2-ac274847b883" d="M4.57,7.25l-.71.31.72.29L9.4,7.64V7.49Z"/><path class="bfc8127d-025e-4a6f-a1e2-ac274847b883" d="M4.7,6.35l.74.42,4,.43A1.06,1.06,0,0,1,9.5,7L5.58,6.16Z"/><path class="bfc8127d-025e-4a6f-a1e2-ac274847b883" d="M6.43,5.15H5.51l.69.55,3.4,1a.61.61,0,0,0,.07-.14Z"/><path class="bfc8127d-025e-4a6f-a1e2-ac274847b883" d="M7.15,4.27H6.52l.3.55,3,1.55L10,6.2Z"/><path class="bfc8127d-025e-4a6f-a1e2-ac274847b883" d="M8.09,3.64l-.63-.15.18.59L10.05,6l.12-.1Z"/><path class="bfc8127d-025e-4a6f-a1e2-ac274847b883" d="M10.45,5.67l.14-.1L9,3,8.4,2.74l.09.66Z"/><path class="bfc8127d-025e-4a6f-a1e2-ac274847b883" d="M11,5.36,10,2.5l-.52-.36,0,.6,1.46,2.64Z"/><path class="bfc8127d-025e-4a6f-a1e2-ac274847b883" d="M11.36,5.25l.2,0-.44-3-.43-.47-.16.62Z"/><path class="bfc8127d-025e-4a6f-a1e2-ac274847b883" d="M12,5.15h.08l.21-3.1L12,1.5,11.66,2l.22,3.11Z"/><path class="bfc8127d-025e-4a6f-a1e2-ac274847b883" d="M13,9.88l-.18.07,4.67,12.86,1,1.06V22.44Z"/><path class="bfc8127d-025e-4a6f-a1e2-ac274847b883" d="M13.39,9.67l-.16.1,5.44,11.11,1.1,1.05-.28-1.52Z"/><path class="bfc8127d-025e-4a6f-a1e2-ac274847b883" d="M13.7,9.43l-.11.09,6,9.09,1.34.89-.59-1.6Z"/><path class="bfc8127d-025e-4a6f-a1e2-ac274847b883" d="M20.34,16.34l1.11.44-.52-1.34L14,9.08l-.12.16Z"/><path class="bfc8127d-025e-4a6f-a1e2-ac274847b883" d="M20.53,13.68l1,.17-.71-1L14.23,8.72a1.14,1.14,0,0,1-.1.19Z"/><path class="bfc8127d-025e-4a6f-a1e2-ac274847b883" d="M20.21,11.45l1.17.06-.84-.8L14.39,8.36l-.06.19Z"/><path class="bfc8127d-025e-4a6f-a1e2-ac274847b883" d="M20.82,9.36l-.92-.57-5.42-.88v.18l5.33,1.47Z"/><path class="bfc8127d-025e-4a6f-a1e2-ac274847b883" d="M19.35,7.84l.71-.3-.7-.29-4.87.22v.15Z"/><path class="bfc8127d-025e-4a6f-a1e2-ac274847b883" d="M18.35,6.16,14.42,7a.34.34,0,0,0,0,.19l4-.43.75-.42Z"/><path class="bfc8127d-025e-4a6f-a1e2-ac274847b883" d="M17.5,5.15,14.29,6.59l.06.15,3.42-1,.65-.55Z"/><path class="bfc8127d-025e-4a6f-a1e2-ac274847b883" d="M16.78,4.27,14,6.2l.08.13,3-1.55.3-.55Z"/><path class="bfc8127d-025e-4a6f-a1e2-ac274847b883" d="M15.84,3.64,13.72,5.87l.11.1,2.45-1.89.18-.59Z"/><path class="bfc8127d-025e-4a6f-a1e2-ac274847b883" d="M13.48,5.67l2-2.28.08-.65L14.94,3,13.33,5.58Z"/><path class="bfc8127d-025e-4a6f-a1e2-ac274847b883" d="M12.91,5.36l.14,0,1.47-2.67-.06-.63L14,2.5Z"/><path class="bfc8127d-025e-4a6f-a1e2-ac274847b883" d="M12.58,5.25l.85-2.86-.16-.62-.43.47-.43,3Z"/><path class="bfc8127d-025e-4a6f-a1e2-ac274847b883" d="M10.46,26.78a3.3,3.3,0,0,0,.64-.6h0a1.21,1.21,0,0,1-.23-.47c-.1.1-.22.19-.33.28h-.12l-.33-.28a1.21,1.21,0,0,1-.23.47h0A3.1,3.1,0,0,0,10.46,26.78Z"/><path class="bfc8127d-025e-4a6f-a1e2-ac274847b883" d="M6.78,26.08a3.1,3.1,0,0,0,.7.7,3.3,3.3,0,0,0,.64-.6h0a1.09,1.09,0,0,1-.23-.47L7.56,26H7.44l-.34-.28a1.52,1.52,0,0,1-.37.3v0Z"/><path class="bfc8127d-025e-4a6f-a1e2-ac274847b883" d="M9.89,25.65a.29.29,0,0,0,0-.13H9.61a.29.29,0,0,0,0,.13.89.89,0,0,0,.17.37A.7.7,0,0,0,9.89,25.65Z"/><path class="bfc8127d-025e-4a6f-a1e2-ac274847b883" d="M11.39,25.65a.29.29,0,0,0,0-.13h-.32a.28.28,0,0,0,0,.13.85.85,0,0,0,.18.37A.85.85,0,0,0,11.39,25.65Z"/><path class="bfc8127d-025e-4a6f-a1e2-ac274847b883" d="M8.4,25.65a.29.29,0,0,0,0-.13H8.12a.29.29,0,0,0,0,.13.74.74,0,0,0,.17.37A.8.8,0,0,0,8.4,25.65Z"/><path class="bfc8127d-025e-4a6f-a1e2-ac274847b883" d="M9,26.78a3,3,0,0,0,.63-.6h0a1.21,1.21,0,0,1-.23-.47L9,26h-.1l-.35-.28a1.07,1.07,0,0,1-.22.47h0A2.89,2.89,0,0,0,9,26.78Z"/><path class="bfc8127d-025e-4a6f-a1e2-ac274847b883" d="M12,26.78a3.25,3.25,0,0,0,.63-.6h0a1.07,1.07,0,0,1-.22-.47L12,26h-.11l-.34-.28a1.19,1.19,0,0,1-.22.47h0A2.84,2.84,0,0,0,12,26.78Z"/><path class="bfc8127d-025e-4a6f-a1e2-ac274847b883" d="M16.43,26.78a2.91,2.91,0,0,0,.7-.7h0l.05-.07a1.35,1.35,0,0,1-.37-.3,2.39,2.39,0,0,1-.35.28h-.11L16,25.72a1.07,1.07,0,0,1-.22.47h0A3.59,3.59,0,0,0,16.43,26.78Z"/><path class="bfc8127d-025e-4a6f-a1e2-ac274847b883" d="M15.86,25.65a.29.29,0,0,0,0-.13h-.29a.29.29,0,0,0,0,.13.89.89,0,0,0,.17.37A.81.81,0,0,0,15.86,25.65Z"/><path class="bfc8127d-025e-4a6f-a1e2-ac274847b883" d="M18,26.3l-.35-.11a1,1,0,0,1-.23-.12.47.47,0,0,0-.06.09h0a3.57,3.57,0,0,1-.8.8.13.13,0,0,1-.12,0,4.64,4.64,0,0,1-.69-.64A3.83,3.83,0,0,1,15,27h-.1a3.55,3.55,0,0,1-.7-.64,3.22,3.22,0,0,1-.69.64h-.11a3.48,3.48,0,0,1-.69-.64,3.83,3.83,0,0,1-.69.64H12a4.19,4.19,0,0,1-.69-.64,4.64,4.64,0,0,1-.69.64h-.11a4.26,4.26,0,0,1-.7-.64,3.22,3.22,0,0,1-.69.64H9a3.22,3.22,0,0,1-.69-.64,4.64,4.64,0,0,1-.69.64H7.47a3.38,3.38,0,0,1-.8-.8h0l0-.09-.23.13h0l-.34.1c-1.37.47-2.18,1.11-2.41,1.89H20.39A3.52,3.52,0,0,0,18,26.3Z"/><path class="bfc8127d-025e-4a6f-a1e2-ac274847b883" d="M12.87,25.65a.29.29,0,0,0,0-.13h-.28a.29.29,0,0,0,0,.13.85.85,0,0,0,.18.37A.79.79,0,0,0,12.87,25.65Z"/><path class="bfc8127d-025e-4a6f-a1e2-ac274847b883" d="M13.45,26.78a3,3,0,0,0,.63-.6h0a1.21,1.21,0,0,1-.23-.47l-.34.28H13.4a3,3,0,0,1-.33-.28,1.11,1.11,0,0,1-.24.47h0A3.2,3.2,0,0,0,13.45,26.78Z"/><path class="bfc8127d-025e-4a6f-a1e2-ac274847b883" d="M14.37,25.65a.29.29,0,0,0,0-.13h-.28a.29.29,0,0,0,0,.13.78.78,0,0,0,.17.37A.94.94,0,0,0,14.37,25.65Z"/><path class="bfc8127d-025e-4a6f-a1e2-ac274847b883" d="M14.94,26.78a3,3,0,0,0,.63-.6h0a1.07,1.07,0,0,1-.22-.47L15,26h-.1l-.35-.28a1.07,1.07,0,0,1-.22.47h0A3.1,3.1,0,0,0,14.94,26.78Z"/><path class="bfc8127d-025e-4a6f-a1e2-ac274847b883" d="M6,31.05a19.84,19.84,0,0,0,6,.8,19.53,19.53,0,0,0,6-.8c1.37-.47,2.19-1.1,2.41-1.87H3.59C3.8,29.94,4.62,30.58,6,31.05Z"/><path class="bfc8127d-025e-4a6f-a1e2-ac274847b883" d="M3.52,28.91v-.39H20.39a.88.88,0,0,1,0,.23.43.43,0,0,1,0,.16Z"/><path class="bfc8127d-025e-4a6f-a1e2-ac274847b883" d="M2.37,27.1h0a.75.75,0,0,1,.67.6.78.78,0,0,1,0,.58.59.59,0,0,1-.36.33H2.49a.75.75,0,0,1-.67-.6.8.8,0,0,1,.05-.59.57.57,0,0,1,.36-.32h.14m0-.28a.74.74,0,0,0-.21,0,1,1,0,0,0-.61,1.25,1,1,0,0,0,.94.8H2.7a1,1,0,0,0,.61-1.23,1,1,0,0,0-.94-.8Z"/><path class="bfc8127d-025e-4a6f-a1e2-ac274847b883" d="M2.9,28.89H3a.33.33,0,0,1,.16.28,1,1,0,0,1-.1.59.81.81,0,0,1-.61.55H2.35A.37.37,0,0,1,2.19,30a1,1,0,0,1,.1-.6.8.8,0,0,1,.61-.55m0-.28a1.07,1.07,0,0,0-.86.71c-.24.53-.16,1.08.2,1.24a.61.61,0,0,0,.19,0,1.1,1.1,0,0,0,.87-.71c.23-.52.14-1.08-.2-1.24Z"/><path class="bfc8127d-025e-4a6f-a1e2-ac274847b883" d="M2.86,29.19a.48.48,0,1,1,.48-.48h0A.48.48,0,0,1,2.86,29.19Z"/><rect class="bfc8127d-025e-4a6f-a1e2-ac274847b883" x="3.24" y="29.38" width="0.18" height="1.5"/><path class="bfc8127d-025e-4a6f-a1e2-ac274847b883" d="M3.8,31.15a.12.12,0,0,0,0-.1.14.14,0,0,0,0-.09l-.47-.6L2.9,31a.3.3,0,0,0,0,.1.12.12,0,0,0,.05.1Z"/><rect class="bfc8127d-025e-4a6f-a1e2-ac274847b883" x="2.83" y="31.04" width="1.01" height="1.96"/><path class="bfc8127d-025e-4a6f-a1e2-ac274847b883" d="M21.56,27.1h.13a.56.56,0,0,1,.37.32.8.8,0,0,1,0,.59.75.75,0,0,1-.67.6H21.3a.6.6,0,0,1-.37-.33.83.83,0,0,1,0-.58.75.75,0,0,1,.67-.6m0-.28a1,1,0,0,0-.93.81,1,1,0,0,0,.57,1.24h.2a1,1,0,0,0,.94-.8,1,1,0,0,0-.57-1.23.74.74,0,0,0-.21,0Z"/><path class="bfc8127d-025e-4a6f-a1e2-ac274847b883" d="M21,28.89a.81.81,0,0,1,.61.55c.18.39.12.8-.06.87h-.09a.83.83,0,0,1-.61-.55,1,1,0,0,1-.09-.59.33.33,0,0,1,.16-.28H21m0-.28h-.2c-.35.16-.44.72-.2,1.24a1.1,1.1,0,0,0,.86.71.67.67,0,0,0,.2,0c.35-.16.44-.71.21-1.24A1.11,1.11,0,0,0,21,28.61Z"/><path class="bfc8127d-025e-4a6f-a1e2-ac274847b883" d="M21.07,29.19a.48.48,0,0,0,.48-.48.47.47,0,0,0-.47-.47h0a.47.47,0,0,0-.48.45v0a.48.48,0,0,0,.47.48Z"/><rect class="bfc8127d-025e-4a6f-a1e2-ac274847b883" x="20.5" y="29.38" width="0.18" height="1.5"/><path class="bfc8127d-025e-4a6f-a1e2-ac274847b883" d="M20.13,31.15a.13.13,0,0,1,0-.1.14.14,0,0,1,0-.09l.47-.6L21,31v.1a.18.18,0,0,1,0,.1Z"/><rect class="bfc8127d-025e-4a6f-a1e2-ac274847b883" x="20.08" y="31.04" width="1.01" height="1.96"/><path class="bfc8127d-025e-4a6f-a1e2-ac274847b883" d="M14,21.54a1.36,1.36,0,0,0,.36.92,1.64,1.64,0,0,1,.44,1H9.15a1.63,1.63,0,0,1,.43-1,1.42,1.42,0,0,0,.37-.92h4m.18-.19H9.74v.15a1.2,1.2,0,0,1-.31.81,1.83,1.83,0,0,0-.51,1.31H15a1.9,1.9,0,0,0-.51-1.26,1.2,1.2,0,0,1-.31-.81V21.4Z"/><path class="bfc8127d-025e-4a6f-a1e2-ac274847b883" d="M12,7.12h0a.41.41,0,0,1,.4.41v0A.4.4,0,0,1,12,8a.4.4,0,1,1,0-.8h0M12,7h-.1a.6.6,0,0,0-.54.64.59.59,0,0,0,.64.53.58.58,0,0,0,.53-.63A.59.59,0,0,0,12,7Z"/><path class="bfc8127d-025e-4a6f-a1e2-ac274847b883" d="M12.13,8.8v.75a2.53,2.53,0,0,0,0,.55l.37,3H11.37l.38-3V8.8h.34m.19-.18h-.72v1.45l-.41,3.22h1.61l-.4-3.22a4.51,4.51,0,0,1,0-.52V8.62Z"/><path class="bfc8127d-025e-4a6f-a1e2-ac274847b883" d="M13,16.8l.32,1.44h0l.07.12a1.57,1.57,0,0,1,.27.81H10.21a1.66,1.66,0,0,1,.27-.81l.08-.11h0l.3-1.43H13m.16-.18H10.75l-.33,1.6-.09.11A2.19,2.19,0,0,0,10,19.46h3.87a2,2,0,0,0-.33-1.11l-.07-.1-.34-1.61Z"/><path class="bfc8127d-025e-4a6f-a1e2-ac274847b883" d="M12.55,13.81a1.08,1.08,0,0,0,.15.55v0a1.15,1.15,0,0,1,.14.32v.64H11v-.64a.73.73,0,0,1,.15-.32v0a1.06,1.06,0,0,0,.13-.55h1.21m.18-.19H11.17v.18a1.12,1.12,0,0,1-.11.47,1,1,0,0,0-.2.43v.8h2.19v-.8a1.06,1.06,0,0,0-.2-.43.88.88,0,0,1-.11-.47v-.18Z"/><path class="bfc8127d-025e-4a6f-a1e2-ac274847b883" d="M12,15a.35.35,0,0,1-.36-.34.36.36,0,0,1,.34-.37.35.35,0,0,1,.36.35h0A.35.35,0,0,1,12,15Z"/><path class="bfc8127d-025e-4a6f-a1e2-ac274847b883" d="M12,17.71a.35.35,0,1,1,.34-.36h0A.35.35,0,0,1,12,17.71Z"/><path class="bfc8127d-025e-4a6f-a1e2-ac274847b883" d="M13.22,16a.07.07,0,0,1,.06.07h0a.06.06,0,0,1-.06.06H10.7a.06.06,0,0,1-.06-.06h0A.07.07,0,0,1,10.7,16h2.52m0-.17H10.7a.23.23,0,0,0-.24.23h0a.25.25,0,0,0,.24.25h2.52a.25.25,0,0,0,.25-.25h0a.24.24,0,0,0-.24-.24Z"/><path class="bfc8127d-025e-4a6f-a1e2-ac274847b883" d="M11.43,23.62H9.51a.43.43,0,0,1,0-.56l1-1.41,1,1.44a.43.43,0,0,1,.07.25.37.37,0,0,1-.1.28ZM9.6,23.44h1.74a.33.33,0,0,0,0-.14.27.27,0,0,0-.05-.15l-.87-1.22-.84,1.2a.27.27,0,0,0-.06.17.23.23,0,0,0,.08.12Z"/><path class="bfc8127d-025e-4a6f-a1e2-ac274847b883" d="M12.91,23.62H11a.45.45,0,0,1,0-.56l1-1.41,1,1.44a.44.44,0,0,1,.08.25.43.43,0,0,1-.11.28Zm-1.83-.18h1.75a.33.33,0,0,0,0-.14.44.44,0,0,0,0-.15L12,21.93l-.85,1.2a.27.27,0,0,0-.06.17.56.56,0,0,0,0,.12Z"/><path class="bfc8127d-025e-4a6f-a1e2-ac274847b883" d="M14.39,23.62H12.48a.45.45,0,0,1,0-.56l1-1.41,1,1.44a.44.44,0,0,1,.08.25.43.43,0,0,1-.11.28Zm-1.82-.18H14.3a.24.24,0,0,0,0-.14.3.3,0,0,0,0-.15l-.86-1.22-.86,1.2a.35.35,0,0,0-.06.17.31.31,0,0,0,.05.12Z"/><path class="bfc8127d-025e-4a6f-a1e2-ac274847b883" d="M9.58,17.37a.5.5,0,0,1,.14.31h0a.5.5,0,0,1-.14.31v0h0a.57.57,0,0,1-.06-.25.58.58,0,0,1,.06-.26h0v0M9.39,17a.41.41,0,0,1,0,.18.22.22,0,0,1,0,.17.74.74,0,0,0-.09.36.54.54,0,0,0,.09.35.24.24,0,0,1,0,.18.34.34,0,0,1,0,.17.32.32,0,0,0,.18-.12.75.75,0,0,0,.34-.58.82.82,0,0,0-.34-.59A.57.57,0,0,0,9.39,17Z"/><path class="bfc8127d-025e-4a6f-a1e2-ac274847b883" d="M10.42,18.3a.63.63,0,0,0-.62-.5v-.18a.81.81,0,0,1,.81.64Z"/><path class="bfc8127d-025e-4a6f-a1e2-ac274847b883" d="M14.34,17.37v0h0a.7.7,0,0,1,.05.25.75.75,0,0,1-.05.26h0v0a.46.46,0,0,1-.15-.31h0a.5.5,0,0,1,.15-.32m.19-.38a.76.76,0,0,0-.19.12.81.81,0,0,0-.33.59.77.77,0,0,0,.33.57.39.39,0,0,0,.19.12.25.25,0,0,1-.06-.16.28.28,0,0,1,.06-.18.73.73,0,0,0,.09-.35.78.78,0,0,0-.09-.37.23.23,0,0,1-.06-.16A.28.28,0,0,1,14.53,17Z"/><path class="bfc8127d-025e-4a6f-a1e2-ac274847b883" d="M13.5,18.27l-.18,0a.8.8,0,0,1,.81-.61v.18A.63.63,0,0,0,13.5,18.27Z"/><path class="bfc8127d-025e-4a6f-a1e2-ac274847b883" d="M10.09,14.19a.55.55,0,0,1,.14.32h0a.55.55,0,0,1-.14.32v-.05h0a.48.48,0,0,1-.07-.26.47.47,0,0,1,.07-.25h0m-.2-.37L10,14a.28.28,0,0,1-.06.18.73.73,0,0,0-.09.35.78.78,0,0,0,.09.37A.25.25,0,0,1,10,15a.48.48,0,0,1-.06.18.76.76,0,0,0,.19-.12.74.74,0,0,0,.33-.59.73.73,0,0,0-.33-.57.39.39,0,0,0-.19-.12Z"/><path class="bfc8127d-025e-4a6f-a1e2-ac274847b883" d="M10.86,15a.65.65,0,0,0-.56-.32v-.18a.8.8,0,0,1,.72.41Z"/><path class="bfc8127d-025e-4a6f-a1e2-ac274847b883" d="M13.82,14.2v0h0a.58.58,0,0,1,.06.26.57.57,0,0,1-.06.25h0v0a.55.55,0,0,1-.14-.32h0a.55.55,0,0,1,.14-.31m.19-.38a.41.41,0,0,0-.18.12.8.8,0,0,0-.34.58.78.78,0,0,0,.34.58.36.36,0,0,0,.18.12A.48.48,0,0,1,14,15a.34.34,0,0,1,0-.17.57.57,0,0,0,.09-.36.59.59,0,0,0-.09-.36A.23.23,0,0,1,14,14a.34.34,0,0,1,0-.17Z"/><path class="bfc8127d-025e-4a6f-a1e2-ac274847b883" d="M13.05,15l-.16-.09a.79.79,0,0,1,.71-.41v.18A.64.64,0,0,0,13.05,15Z"/><path class="bfc8127d-025e-4a6f-a1e2-ac274847b883" d="M8.58,19.77a.55.55,0,0,1,.14.32h0a.55.55,0,0,1-.14.32v0h0a.48.48,0,0,1-.07-.26.54.54,0,0,1,.06-.25h0v-.05m-.2-.38a.28.28,0,0,1,.06.18.19.19,0,0,1-.06.17.64.64,0,0,0-.08.36.62.62,0,0,0,.08.35.19.19,0,0,1,.06.17.3.3,0,0,1-.06.18.52.52,0,0,0,.19-.12.68.68,0,0,0,0-1.17A.52.52,0,0,0,8.37,19.43Z"/><path class="bfc8127d-025e-4a6f-a1e2-ac274847b883" d="M9.43,20.75a.64.64,0,0,0-.63-.54V20a.78.78,0,0,1,.8.69Z"/><path class="bfc8127d-025e-4a6f-a1e2-ac274847b883" d="M15.35,19.77v.05h0a.74.74,0,0,1,.05.25.47.47,0,0,1-.05.26h0v0a.56.56,0,0,1-.15-.32h0a.56.56,0,0,1,.15-.32m.19-.38a.57.57,0,0,0-.18.12.67.67,0,0,0-.25.92.75.75,0,0,0,.25.25.57.57,0,0,0,.18.12.64.64,0,0,1-.06-.18.27.27,0,0,1,.06-.17.73.73,0,0,0,.09-.35.74.74,0,0,0-.09-.36.27.27,0,0,1-.06-.17A.64.64,0,0,1,15.54,19.35Z"/><path class="bfc8127d-025e-4a6f-a1e2-ac274847b883" d="M14.5,20.75h-.18a.81.81,0,0,1,.8-.7v.18A.63.63,0,0,0,14.5,20.75Z"/><path class="bfc8127d-025e-4a6f-a1e2-ac274847b883" d="M14,19.91h0a.48.48,0,0,1,0,.95H10a.47.47,0,0,1-.47-.47.48.48,0,0,1,.47-.48h4m0-.18H10a.66.66,0,0,0-.65.66A.65.65,0,0,0,10,21h4a.65.65,0,0,0,.65-.65A.66.66,0,0,0,14,19.73Z"/><polygon class="bfc8127d-025e-4a6f-a1e2-ac274847b883" points="12.77 20.93 13.07 20.93 13.75 20.39 13.07 19.85 12.78 19.85 13.45 20.39 12.77 20.93"/><polygon class="bfc8127d-025e-4a6f-a1e2-ac274847b883" points="11.17 20.93 10.48 20.39 11.17 19.85 10.87 19.85 10.18 20.39 10.87 20.93 11.17 20.93"/><path class="bfc8127d-025e-4a6f-a1e2-ac274847b883" d="M12,20.73a.33.33,0,0,1-.35-.33h0a.37.37,0,1,1,.74,0,.34.34,0,0,1-.37.32Z"/><path class="bfc8127d-025e-4a6f-a1e2-ac274847b883" d="M14.88,24.11h0a.5.5,0,0,1,.48.48.48.48,0,0,1-.48.47H9a.47.47,0,0,1-.47-.47A.48.48,0,0,1,9,24.11h5.87m0-.18H9a.66.66,0,1,0,0,1.31H14.9a.65.65,0,0,0,.67-.63v0a.66.66,0,0,0-.65-.66Z"/><polygon class="bfc8127d-025e-4a6f-a1e2-ac274847b883" points="13.4 25.2 13.7 25.2 14.47 24.59 13.75 24.03 13.46 24.03 14.18 24.59 13.4 25.2"/><polygon class="bfc8127d-025e-4a6f-a1e2-ac274847b883" points="12.66 25.2 12.96 25.2 13.73 24.59 13.02 24.03 12.72 24.03 13.44 24.59 12.66 25.2"/><polygon class="bfc8127d-025e-4a6f-a1e2-ac274847b883" points="11.24 25.2 10.46 24.59 11.19 24.03 10.89 24.03 10.17 24.59 10.95 25.2 11.24 25.2"/><polygon class="bfc8127d-025e-4a6f-a1e2-ac274847b883" points="10.54 25.2 9.76 24.59 10.48 24.03 10.18 24.03 9.46 24.59 10.24 25.2 10.54 25.2"/><path class="bfc8127d-025e-4a6f-a1e2-ac274847b883" d="M12,24.94a.35.35,0,1,1,.34-.36h0A.35.35,0,0,1,12,24.94Z"/><path class="bfc8127d-025e-4a6f-a1e2-ac274847b883" d="M8.86,24.94a.36.36,0,0,1-.36-.35.36.36,0,0,1,.71,0h0A.35.35,0,0,1,8.86,24.94Z"/><path class="bfc8127d-025e-4a6f-a1e2-ac274847b883" d="M15.05,24.94a.35.35,0,0,1-.35-.35.35.35,0,0,1,.35-.35.34.34,0,0,1,.35.35A.35.35,0,0,1,15.05,24.94Z"/><path class="bfc8127d-025e-4a6f-a1e2-ac274847b883" d="M13.76,19.23H13a.24.24,0,0,0,0-.12.4.4,0,0,0-.08-.23l-.16-.2.51-.65-.05-.25-.58.74-.75-.95-.74.95-.61-.8-.07.22.56.71-.14.18a.46.46,0,0,0-.1.26v.12H10v.18h3.69Zm-2.41,0h-.27a.26.26,0,0,1-.05-.12A.27.27,0,0,1,11.1,19l.11-.15.13.17a.26.26,0,0,1,.05.12A.56.56,0,0,1,11.35,19.23Zm1.1-.38a.52.52,0,0,0-.1.26.24.24,0,0,0,0,.12h-.79v-.12a.43.43,0,0,0-.09-.23l-.16-.2.63-.81.64.81Zm.39.38h-.26a.17.17,0,0,1,0-.12.24.24,0,0,1,.05-.14l.11-.15.13.17a.18.18,0,0,1,.05.12A.17.17,0,0,1,12.84,19.23Z"/><polygon class="bfc8127d-025e-4a6f-a1e2-ac274847b883" points="13.07 21.46 12.7 21.99 12.32 21.46 12.09 21.46 12.7 22.31 13.3 21.46 13.07 21.46"/><polygon class="bfc8127d-025e-4a6f-a1e2-ac274847b883" points="11.59 21.46 11.21 21.99 10.83 21.46 10.61 21.46 11.21 22.31 11.81 21.46 11.59 21.46"/><g class="b05f83d2-b0cf-48bc-8bfc-ae13b11be9e0"><g class="b05f83d2-b0cf-48bc-8bfc-ae13b11be9e0"><path class="bfc8127d-025e-4a6f-a1e2-ac274847b883" d="M34,30.41l-.09.61a5,5,0,0,1-.9.14c-1.32,0-2.06-.58-2.06-2.52,0-1.62.67-2.38,2-2.38a2.31,2.31,0,0,1,1.06.26,2.3,2.3,0,0,0-.29.63H33.7a1.15,1.15,0,0,0-.77-.24c-.65,0-1,.42-1,1.77,0,1.53.44,1.83,1,1.83a3.17,3.17,0,0,0,1-.16Z"/></g><g class="b05f83d2-b0cf-48bc-8bfc-ae13b11be9e0"><path class="bfc8127d-025e-4a6f-a1e2-ac274847b883" d="M35.45,29.52v.2a6.63,6.63,0,0,0,0,1.39h-.83a5.65,5.65,0,0,0,.06-1.39V28.9a5.65,5.65,0,0,0-.06-1.39h.83a6.77,6.77,0,0,0,0,1.39V29h1.07V28.9a6.77,6.77,0,0,0-.05-1.39h.83a6.77,6.77,0,0,0,0,1.39v.82a6.63,6.63,0,0,0,0,1.39h-.83a6.77,6.77,0,0,0,.05-1.39v-.2Z"/><path class="bfc8127d-025e-4a6f-a1e2-ac274847b883" d="M38,30V28.9a6.63,6.63,0,0,0,0-1.39h.83a6.7,6.7,0,0,0,0,1.39v1.17c0,.39.17.61.53.61s.53-.22.53-.61V28.9a5.6,5.6,0,0,0-.06-1.39h.84a5.54,5.54,0,0,0-.06,1.39V30a1.09,1.09,0,0,1-1.25,1.15C38.41,31.15,38,30.71,38,30Z"/><path class="bfc8127d-025e-4a6f-a1e2-ac274847b883" d="M41.16,31.11a6.63,6.63,0,0,0,.05-1.39V28.9a6.77,6.77,0,0,0-.05-1.39H42a8.44,8.44,0,0,0,0,1.39v1.72a6,6,0,0,0,1.3-.08c0,.14,0,.22,0,.3a2.26,2.26,0,0,0,0,.27Z"/><path class="bfc8127d-025e-4a6f-a1e2-ac274847b883" d="M45.11,30.31h-.92l-.24.81h-.64l1.17-3.64h.43l1.17,3.64h-.73Zm-.79-.47H45l-.32-1.1Z"/></g><g class="b05f83d2-b0cf-48bc-8bfc-ae13b11be9e0"><path class="bfc8127d-025e-4a6f-a1e2-ac274847b883" d="M46.45,31.11a6.63,6.63,0,0,0,0-1.39V28.9a5.65,5.65,0,0,0-.06-1.39h.81a11.23,11.23,0,0,0,0,1.39v1.72a6.13,6.13,0,0,0,1.3-.08,1.85,1.85,0,0,0,0,.3,2.26,2.26,0,0,0,0,.27Z"/></g><g class="b05f83d2-b0cf-48bc-8bfc-ae13b11be9e0"><path class="bfc8127d-025e-4a6f-a1e2-ac274847b883" d="M48.66,29.27c0-1.21.44-1.8,1.38-1.8s1.38.59,1.38,1.8S51,31.15,50,31.15,48.66,30.53,48.66,29.27Zm.74,0c0,1,.21,1.38.64,1.38s.64-.35.64-1.38-.21-1.36-.64-1.36S49.4,28.24,49.4,29.3Z"/><path class="bfc8127d-025e-4a6f-a1e2-ac274847b883" d="M52,28.1a3.21,3.21,0,0,0,0-.63h.47l1.31,2.14V28.9a5.54,5.54,0,0,0-.06-1.39h.8a6.7,6.7,0,0,0-.05,1.39v2.24H54l-1.28-2v.62a6.19,6.19,0,0,0,.06,1.39H52A5.54,5.54,0,0,0,52,29.72Z"/><path class="bfc8127d-025e-4a6f-a1e2-ac274847b883" d="M56.88,30a3.59,3.59,0,0,0-.05-.75l.43,0a2.38,2.38,0,0,0,.36,0c0,.46,0,.62,0,.81v1a8.48,8.48,0,0,1-1,.11c-1,0-1.52-.4-1.52-1.89,0-1.25.65-1.79,1.6-1.79a2.11,2.11,0,0,1,.92.21,1.53,1.53,0,0,0-.21.5h-.08a.91.91,0,0,0-.64-.24c-.52,0-.86.33-.86,1.35s.3,1.39.76,1.39a2,2,0,0,0,.27,0Z"/></g><g class="b05f83d2-b0cf-48bc-8bfc-ae13b11be9e0"><path class="bfc8127d-025e-4a6f-a1e2-ac274847b883" d="M59.07,29.14h0v.57a6.63,6.63,0,0,0,0,1.39h-.83a5.65,5.65,0,0,0,.06-1.39V28.9a5.65,5.65,0,0,0-.06-1.39h.83a6.77,6.77,0,0,0,0,1.39Zm.08.19s0,0-.06,0,0,0,0,0v-.17a0,0,0,0,0,0,0s0,0,.06-.05l1-1.62h.78l-1.1,1.74L61,31.11h-.8Z"/></g><g class="b05f83d2-b0cf-48bc-8bfc-ae13b11be9e0"><path class="bfc8127d-025e-4a6f-a1e2-ac274847b883" d="M61.12,29.27c0-1.21.43-1.8,1.37-1.8s1.38.59,1.38,1.8-.44,1.88-1.38,1.88S61.12,30.53,61.12,29.27Zm.73,0c0,1,.22,1.38.64,1.38s.65-.35.65-1.38-.22-1.36-.65-1.36S61.85,28.24,61.85,29.3Z"/><path class="bfc8127d-025e-4a6f-a1e2-ac274847b883" d="M64.5,28.8c0-.26,0-1,0-1.29.35,0,.7,0,1.09,0,.91,0,1.27.43,1.27,1.08a1,1,0,0,1-.69,1L67,31.12l-.46,0-.36,0-.77-1.45h-.22v0a6.63,6.63,0,0,0,0,1.39h-.82a6.77,6.77,0,0,0,0-1.39Zm.72.39h.34c.28,0,.54-.15.54-.61s-.19-.64-.47-.64a2.64,2.64,0,0,0-.39,0c0,.26,0,.6,0,.84Z"/><path class="bfc8127d-025e-4a6f-a1e2-ac274847b883" d="M67.54,28.1a2.57,2.57,0,0,0,0-.63H68l1.32,2.14V28.9a5.54,5.54,0,0,0-.06-1.39H70a6.7,6.7,0,0,0,0,1.39v2.24h-.47l-1.28-2v.62a5.54,5.54,0,0,0,.06,1.39h-.81a5.54,5.54,0,0,0,.06-1.39Z"/></g><g class="b05f83d2-b0cf-48bc-8bfc-ae13b11be9e0"><path class="bfc8127d-025e-4a6f-a1e2-ac274847b883" d="M72.17,29.62V28.16a7.52,7.52,0,0,0-.08-1.86h1.12a8.57,8.57,0,0,0-.07,1.86v1.56c0,.52.22.81.7.81s.71-.29.71-.81V28.16a8.57,8.57,0,0,0-.07-1.86h1.11a8.57,8.57,0,0,0-.07,1.86v1.46c0,1-.57,1.54-1.68,1.54A1.46,1.46,0,0,1,72.17,29.62Z"/></g><g class="b05f83d2-b0cf-48bc-8bfc-ae13b11be9e0"><path class="bfc8127d-025e-4a6f-a1e2-ac274847b883" d="M76.37,28.1a2.57,2.57,0,0,0,0-.63h.47l1.32,2.14V28.9a6.19,6.19,0,0,0-.06-1.39h.8a6.7,6.7,0,0,0,0,1.39v2.24h-.47l-1.28-2v.62a5.54,5.54,0,0,0,.06,1.39h-.81a5.54,5.54,0,0,0,.06-1.39Z"/><path class="bfc8127d-025e-4a6f-a1e2-ac274847b883" d="M80.09,31.11h-.41a6.77,6.77,0,0,0,0-1.39V28.9a6.77,6.77,0,0,0,0-1.39h.82a5.65,5.65,0,0,0-.06,1.39v.82a5.65,5.65,0,0,0,.06,1.39Z"/><path class="bfc8127d-025e-4a6f-a1e2-ac274847b883" d="M81,27.5h.82c0,.22.13.66.61,2.47.37-1.39.42-1.7.61-2.47h.74c-.34,1.08-.44,1.56-1.06,3.61H82C81.31,28.54,81.1,27.74,81,27.5Z"/><path class="bfc8127d-025e-4a6f-a1e2-ac274847b883" d="M86.3,27.51a2,2,0,0,0,0,.22V28A8,8,0,0,0,85,28V29c.63,0,1.06,0,1.21,0,0,.12,0,.19,0,.27a2.45,2.45,0,0,0,0,.25,10.17,10.17,0,0,0-1.21,0v1.19a8.18,8.18,0,0,0,1.38-.06c0,.13,0,.21,0,.28a2.12,2.12,0,0,0,0,.24H84.18a5.54,5.54,0,0,0,.06-1.39V28.9a5.54,5.54,0,0,0-.06-1.39Z"/><path class="bfc8127d-025e-4a6f-a1e2-ac274847b883" d="M87,28.8c0-.26,0-1,0-1.29.35,0,.7,0,1.09,0,.91,0,1.27.43,1.27,1.08a1,1,0,0,1-.69,1l.89,1.54-.46,0-.36,0-.77-1.45h-.22v0a6.63,6.63,0,0,0,0,1.39H86.9a6.77,6.77,0,0,0,0-1.39Zm.72.39H88c.28,0,.54-.15.54-.61s-.19-.64-.47-.64a2.64,2.64,0,0,0-.39,0c0,.26,0,.6,0,.84Z"/><path class="bfc8127d-025e-4a6f-a1e2-ac274847b883" d="M91.34,30.08c0-.33-.3-.46-.63-.59s-.83-.38-.83-1,.48-1,1.23-1a1.54,1.54,0,0,1,.86.24,2.57,2.57,0,0,0-.22.48h-.09c-.08-.17-.29-.25-.58-.25a.44.44,0,0,0-.48.47c0,.41.3.51.59.62s.88.34.88,1-.52,1.09-1.28,1.09a1.56,1.56,0,0,1-1-.3,5.58,5.58,0,0,0,.25-.55h.1a.74.74,0,0,0,.65.36C91.16,30.66,91.34,30.46,91.34,30.08Z"/><path class="bfc8127d-025e-4a6f-a1e2-ac274847b883" d="M93.17,31.11h-.41a6.77,6.77,0,0,0,0-1.39V28.9a6.77,6.77,0,0,0,0-1.39h.82a5.65,5.65,0,0,0-.06,1.39v.82a5.65,5.65,0,0,0,.06,1.39Z"/><path class="bfc8127d-025e-4a6f-a1e2-ac274847b883" d="M96.52,27.51a2.44,2.44,0,0,0,0,.28V28c-.31,0-.54,0-.84,0v1.72a6.63,6.63,0,0,0,0,1.39H94.9A5.65,5.65,0,0,0,95,29.72V28c-.3,0-.54,0-.84,0v-.24a1.23,1.23,0,0,0,0-.28Z"/><path class="bfc8127d-025e-4a6f-a1e2-ac274847b883" d="M98.69,27.51h.79c-.39.69-.75,1.39-1.09,2.07a6.52,6.52,0,0,0,.06,1.54h-.82a7.66,7.66,0,0,0,.05-1.54c-.35-.7-.7-1.38-1.09-2.07h.79c.19.45.39.91.66,1.41A14.56,14.56,0,0,0,98.69,27.51Z"/></g></g><path class="bfc8127d-025e-4a6f-a1e2-ac274847b883" d="M32.27,15v.71a7.51,7.51,0,0,0,6.13,6.78h6.32v1.75H38.44a9.31,9.31,0,0,1-7.83-8.57V15a9.31,9.31,0,0,1,7.83-8.57h6.28V8.22H38.4A7.52,7.52,0,0,0,32.27,15Z"/><path class="bfc8127d-025e-4a6f-a1e2-ac274847b883" d="M35.48,15.36a4.16,4.16,0,0,0,3.37,4h5.87v1.84H38.77a5.88,5.88,0,0,1,0-11.68h5.95v1.83H38.87A4.17,4.17,0,0,0,35.48,15.36Z"/><rect class="bfc8127d-025e-4a6f-a1e2-ac274847b883" x="46.46" y="6.47" width="1.9" height="17.76"/><path class="bfc8127d-025e-4a6f-a1e2-ac274847b883" d="M60.72,16.06v8.18H59V16.06a5.7,5.7,0,0,0-4.57-4.31,5.27,5.27,0,0,0-3,.42,6.19,6.19,0,0,0-1.85,1.26v-7h1.85v4A6.42,6.42,0,0,1,54.94,10,7.2,7.2,0,0,1,60.72,16.06Z"/><path class="bfc8127d-025e-4a6f-a1e2-ac274847b883" d="M57.67,16.28v8H55.86V16.7a2.29,2.29,0,0,0-4.41-.22v7.76H49.6V16.87a4.57,4.57,0,0,1,1.85-3.13,3.54,3.54,0,0,1,1.36-.56A4.47,4.47,0,0,1,57.67,16.28Z"/><path class="bfc8127d-025e-4a6f-a1e2-ac274847b883" d="M77.18,10v7.5a8,8,0,0,1-6,6.6,6.7,6.7,0,0,1-3.21,0,8,8,0,0,1-6-6.6V10h2.07v7.47a5.51,5.51,0,0,0,11,0V10Z"/><path class="bfc8127d-025e-4a6f-a1e2-ac274847b883" d="M73.83,10v7.44a4.44,4.44,0,0,1-3.92,3.48h-.57a4.45,4.45,0,0,1-3.91-3.48V10h2v7.15A2.69,2.69,0,0,0,69.63,19a2.72,2.72,0,0,0,2.18-1.89V10Z"/><rect class="bfc8127d-025e-4a6f-a1e2-ac274847b883" x="78.87" y="6.47" width="1.74" height="17.76"/><rect class="bfc8127d-025e-4a6f-a1e2-ac274847b883" x="81.97" y="6.47" width="1.74" height="17.76"/><path class="bfc8127d-025e-4a6f-a1e2-ac274847b883" d="M96.46,24.24V16.62A4,4,0,1,0,93,21.13l.15,0V19.36H92.09a2.26,2.26,0,0,1-1.8-1.82,2.22,2.22,0,0,1,1.25-2.41,2.34,2.34,0,0,1,2.83,1,1.91,1.91,0,0,1,.22.62v7.51Z"/><path class="bfc8127d-025e-4a6f-a1e2-ac274847b883" d="M99.5,24.24V16.06a7.15,7.15,0,1,0-14,3,7.54,7.54,0,0,0,5.82,5.14h1.78V22.39H91.89a5.27,5.27,0,0,1-3.11-9,5.48,5.48,0,0,1,4-1.53,5.35,5.35,0,0,1,4.69,3.32,4.28,4.28,0,0,1,.25,1.07v8Z"/><path class="a2224b83-a8d3-424c-8d67-fb6fa49fc37f" d="M11,9.59,5.48,22.15v1.4l1-1.07L11.14,9.63Z"/><path class="a2224b83-a8d3-424c-8d67-fb6fa49fc37f" d="M10.58,9.38,4.47,20.13l-.28,1.53L5.3,20.61,10.74,9.49A.91.91,0,0,1,10.58,9.38Z"/><path class="a2224b83-a8d3-424c-8d67-fb6fa49fc37f" d="M10.26,9.14,3.61,17.59,3,19.2l1.34-.88,6-9.08Z"/><path class="a2224b83-a8d3-424c-8d67-fb6fa49fc37f" d="M10,8.79,3,15.15l-.52,1.34,1.12-.44L10.05,9C10,8.88,10,8.88,10,8.79Z"/><path class="a2224b83-a8d3-424c-8d67-fb6fa49fc37f" d="M9.72,8.43,3.1,12.52l-.71,1,1-.17L9.86,8.62A1.33,1.33,0,0,1,9.72,8.43Z"/><path class="a2224b83-a8d3-424c-8d67-fb6fa49fc37f" d="M9.57,8.08,3.43,10.39l-.86.8,1.19-.07L9.64,8.2A.75.75,0,0,1,9.57,8.08Z"/><path class="a2224b83-a8d3-424c-8d67-fb6fa49fc37f" d="M9.48,7.62,4.06,8.5l-.92.57,1,.2L9.51,7.8Z"/><path class="a2224b83-a8d3-424c-8d67-fb6fa49fc37f" d="M4.61,7l-.72.32.72.29,4.83-.21a.43.43,0,0,1,0-.16Z"/><path class="a2224b83-a8d3-424c-8d67-fb6fa49fc37f" d="M4.74,6.06l.73.42,4,.43a.31.31,0,0,1,0-.19L5.61,5.87Z"/><path class="a2224b83-a8d3-424c-8d67-fb6fa49fc37f" d="M6.46,4.87H5.54l.69.54L9.64,6.47a.61.61,0,0,1,.07-.14Z"/><path class="a2224b83-a8d3-424c-8d67-fb6fa49fc37f" d="M7.19,4l-.64-.05.31.56L9.85,6,10,5.91Z"/><path class="a2224b83-a8d3-424c-8d67-fb6fa49fc37f" d="M8.13,3.35,7.5,3.2l.18.59,2.41,1.9.12-.11Z"/><path class="a2224b83-a8d3-424c-8d67-fb6fa49fc37f" d="M10.48,5.38l.14-.1L9,2.72l-.58-.26.08.65Z"/><path class="a2224b83-a8d3-424c-8d67-fb6fa49fc37f" d="M11.06,5.07,10,2.21l-.52-.35,0,.6L10.91,5.1Z"/><path class="a2224b83-a8d3-424c-8d67-fb6fa49fc37f" d="M11.39,5h.17l-.44-3-.43-.46-.16.61Z"/><path class="a2224b83-a8d3-424c-8d67-fb6fa49fc37f" d="M12,4.87h.09l.2-3.09L12,1.22l-.3.54.21,3.11Z"/><path class="a2224b83-a8d3-424c-8d67-fb6fa49fc37f" d="M13,9.59l-.17.07,4.66,12.86,1,1.06V22.15Z"/><path class="a2224b83-a8d3-424c-8d67-fb6fa49fc37f" d="M13.42,9.38l-.16.1L18.7,20.6l1.1,1-.27-1.52Z"/><path class="a2224b83-a8d3-424c-8d67-fb6fa49fc37f" d="M13.73,9.14l-.11.1,6,9.08,1.34.89-.6-1.6Z"/><path class="a2224b83-a8d3-424c-8d67-fb6fa49fc37f" d="M20.37,16.05l1.12.44L21,15.15,14.05,8.79c0,.05-.08.11-.13.16Z"/><path class="a2224b83-a8d3-424c-8d67-fb6fa49fc37f" d="M20.56,13.39l1.05.17-.72-1L14.26,8.43a1.14,1.14,0,0,1-.1.19Z"/><path class="a2224b83-a8d3-424c-8d67-fb6fa49fc37f" d="M20.24,11.16l1.18.06-.85-.8L14.42,8.08a.6.6,0,0,1-.06.19Z"/><path class="a2224b83-a8d3-424c-8d67-fb6fa49fc37f" d="M20.85,9.07l-.92-.57-5.42-.88V7.8l5.34,1.47Z"/><path class="a2224b83-a8d3-424c-8d67-fb6fa49fc37f" d="M19.38,7.55l.72-.3L19.39,7l-4.87.22v.15Z"/><path class="a2224b83-a8d3-424c-8d67-fb6fa49fc37f" d="M18.38,5.87l-3.93.85a.34.34,0,0,0,0,.19l4-.43.74-.42Z"/><path class="a2224b83-a8d3-424c-8d67-fb6fa49fc37f" d="M17.53,4.87,14.32,6.3a.94.94,0,0,1,.06.15l3.42-1,.66-.54Z"/><path class="a2224b83-a8d3-424c-8d67-fb6fa49fc37f" d="M16.81,4,14.05,5.91l.09.13,3-1.54.31-.56Z"/><path class="a2224b83-a8d3-424c-8d67-fb6fa49fc37f" d="M15.87,3.35,13.76,5.58l.11.11,2.41-1.9.18-.59Z"/><path class="a2224b83-a8d3-424c-8d67-fb6fa49fc37f" d="M13.52,5.38l2-2.28.08-.66L15,2.72,13.36,5.28Z"/><path class="a2224b83-a8d3-424c-8d67-fb6fa49fc37f" d="M12.94,5.07l.14,0,1.47-2.66-.05-.62-.5.37Z"/><path class="a2224b83-a8d3-424c-8d67-fb6fa49fc37f" d="M12.61,5l.86-2.86-.16-.62L12.87,2l-.43,3Z"/><path class="a2224b83-a8d3-424c-8d67-fb6fa49fc37f" d="M10.5,26.49a3.25,3.25,0,0,0,.63-.6h0a1,1,0,0,1-.22-.47l-.34.28h-.11l-.34-.28a1.09,1.09,0,0,1-.23.47h0A3.15,3.15,0,0,0,10.5,26.49Z"/><path class="a2224b83-a8d3-424c-8d67-fb6fa49fc37f" d="M6.82,25.8a3,3,0,0,0,.69.69,3,3,0,0,0,.64-.6h0a1.09,1.09,0,0,1-.23-.47l-.35.25H7.46a3,3,0,0,1-.34-.28,1.43,1.43,0,0,1-.38.31l0,.05Z"/><path class="a2224b83-a8d3-424c-8d67-fb6fa49fc37f" d="M9.93,25.36v-.13H9.64a.29.29,0,0,0,0,.13.85.85,0,0,0,.18.37A.94.94,0,0,0,9.93,25.36Z"/><path class="a2224b83-a8d3-424c-8d67-fb6fa49fc37f" d="M11.42,25.36a.29.29,0,0,0,0-.13h-.31a.15.15,0,0,0,0,.13.82.82,0,0,0,.16.37A.85.85,0,0,0,11.42,25.36Z"/><path class="a2224b83-a8d3-424c-8d67-fb6fa49fc37f" d="M8.43,25.36a.29.29,0,0,0,0-.13H8.15a.29.29,0,0,0,0,.13.85.85,0,0,0,.18.37A.79.79,0,0,0,8.43,25.36Z"/><path class="a2224b83-a8d3-424c-8d67-fb6fa49fc37f" d="M9,26.49a3.25,3.25,0,0,0,.63-.6h0a1.08,1.08,0,0,1-.22-.47c-.11.1-.23.19-.35.28H9l-.34-.28a1,1,0,0,1-.22.47h0A2.84,2.84,0,0,0,9,26.49Z"/><path class="a2224b83-a8d3-424c-8d67-fb6fa49fc37f" d="M12,26.49a3,3,0,0,0,.63-.6h0a1.08,1.08,0,0,1-.22-.47l-.34.28H12l-.36-.3a1.21,1.21,0,0,1-.23.47h0A3.37,3.37,0,0,0,12,26.49Z"/><path class="a2224b83-a8d3-424c-8d67-fb6fa49fc37f" d="M16.46,26.49a2.87,2.87,0,0,0,.7-.69l.05-.05.05-.06a1.34,1.34,0,0,1-.36-.31c-.11.1-.23.19-.36.29h-.11l-.34-.28a1.07,1.07,0,0,1-.22.47h0A3.53,3.53,0,0,0,16.46,26.49Z"/><path class="a2224b83-a8d3-424c-8d67-fb6fa49fc37f" d="M15.89,25.36a.29.29,0,0,0,0-.13H15.6v.13a1,1,0,0,0,.17.37A.81.81,0,0,0,15.89,25.36Z"/><path class="a2224b83-a8d3-424c-8d67-fb6fa49fc37f" d="M18,26l-.35-.11-.26-.15-.06.08h0a3.42,3.42,0,0,1-.8.81h-.12a4.64,4.64,0,0,1-.69-.64,3.5,3.5,0,0,1-.69.64h-.1a3.5,3.5,0,0,1-.69-.64,4.64,4.64,0,0,1-.69.64h-.12a4.64,4.64,0,0,1-.69-.64,3.83,3.83,0,0,1-.69.64.11.11,0,0,1-.11,0,4.19,4.19,0,0,1-.69-.64,3.8,3.8,0,0,1-.69.64h-.11A3.8,3.8,0,0,1,9.77,26a3.55,3.55,0,0,1-.7.64H9A3.5,3.5,0,0,1,8.28,26a4.64,4.64,0,0,1-.69.64.13.13,0,0,1-.12,0,3.84,3.84,0,0,1-.8-.81h0l0-.07-.23.11h0L6.05,26c-1.37.46-2.18,1.11-2.41,1.89H20.38C20.15,27.11,19.34,26.47,18,26Z"/><path class="a2224b83-a8d3-424c-8d67-fb6fa49fc37f" d="M12.91,25.36a.29.29,0,0,0,0-.13h-.29v.13a.85.85,0,0,0,.18.37A.8.8,0,0,0,12.91,25.36Z"/><path class="a2224b83-a8d3-424c-8d67-fb6fa49fc37f" d="M13.48,26.49a3.3,3.3,0,0,0,.64-.6h0a1.09,1.09,0,0,1-.23-.47l-.33.28h-.12c-.12-.1-.24-.19-.33-.28a1.09,1.09,0,0,1-.23.47h0A3.1,3.1,0,0,0,13.48,26.49Z"/><path class="a2224b83-a8d3-424c-8d67-fb6fa49fc37f" d="M14.4,25.36a.29.29,0,0,0,0-.13h-.28a.29.29,0,0,0,0,.13.76.76,0,0,0,.18.37A.79.79,0,0,0,14.4,25.36Z"/><path class="a2224b83-a8d3-424c-8d67-fb6fa49fc37f" d="M15,26.49a3,3,0,0,0,.63-.6h0a1,1,0,0,1-.22-.47L15,25.7h-.1l-.35-.28a1,1,0,0,1-.22.47h0A3.15,3.15,0,0,0,15,26.49Z"/><path class="a2224b83-a8d3-424c-8d67-fb6fa49fc37f" d="M6,30.76a19.25,19.25,0,0,0,6,.8,19.12,19.12,0,0,0,6-.8c1.38-.47,2.19-1.1,2.41-1.87H3.63C3.84,29.66,4.66,30.29,6,30.76Z"/><path class="a2224b83-a8d3-424c-8d67-fb6fa49fc37f" d="M3.55,28.62v-.39H20.43v.39Z"/><path class="a2224b83-a8d3-424c-8d67-fb6fa49fc37f" d="M2.4,26.81h0A.84.84,0,0,1,3,28a.6.6,0,0,1-.36.32H2.53a.74.74,0,0,1-.67-.6.83.83,0,0,1,0-.58.59.59,0,0,1,.36-.33h.14m0-.27-.17,0a1,1,0,0,0-.6,1.24,1,1,0,0,0,.94.81h.2a1,1,0,0,0,.61-1.25,1,1,0,0,0-.94-.8Z"/><path class="a2224b83-a8d3-424c-8d67-fb6fa49fc37f" d="M2.93,28.61H3a.37.37,0,0,1,.16.27,1.09,1.09,0,0,1-.11.59.8.8,0,0,1-.6.55.14.14,0,0,1-.09,0,.37.37,0,0,1-.16-.27,1.12,1.12,0,0,1,.1-.6.78.78,0,0,1,.61-.54m0-.29a1.08,1.08,0,0,0-.86.72c-.23.52-.15,1.08.2,1.23a.46.46,0,0,0,.2.05,1.08,1.08,0,0,0,.86-.72c.23-.52.14-1.07-.2-1.23A.46.46,0,0,0,2.93,28.32Z"/><path class="a2224b83-a8d3-424c-8d67-fb6fa49fc37f" d="M2.89,28.9a.48.48,0,1,1,.12,0A.24.24,0,0,1,2.89,28.9Z"/><rect class="a2224b83-a8d3-424c-8d67-fb6fa49fc37f" x="3.28" y="29.1" width="0.18" height="1.5"/><path class="a2224b83-a8d3-424c-8d67-fb6fa49fc37f" d="M3.83,30.86a.12.12,0,0,0,0-.1v-.09l-.48-.6-.46.59a.13.13,0,0,0,0,.1.1.1,0,0,0,0,.1Z"/><rect class="a2224b83-a8d3-424c-8d67-fb6fa49fc37f" x="2.86" y="30.75" width="1.01" height="1.96"/><path class="a2224b83-a8d3-424c-8d67-fb6fa49fc37f" d="M21.6,26.81h.13a.58.58,0,0,1,.37.33.89.89,0,0,1,0,.58.75.75,0,0,1-.67.6h-.14A.57.57,0,0,1,21,28a.8.8,0,0,1,0-.59.76.76,0,0,1,.68-.6m0-.27a1,1,0,0,0-.94.8,1,1,0,0,0,.57,1.24.74.74,0,0,0,.21,0,1,1,0,0,0,.94-.8,1,1,0,0,0-.58-1.22h-.2Z"/><path class="a2224b83-a8d3-424c-8d67-fb6fa49fc37f" d="M21.07,28.61a.78.78,0,0,1,.61.54c.17.4.11.81-.07.87a.11.11,0,0,1-.08,0,.8.8,0,0,1-.61-.55,1.09,1.09,0,0,1-.1-.59.32.32,0,0,1,.16-.27h.09m0-.29a.46.46,0,0,0-.2.05c-.35.16-.44.71-.2,1.23a1.08,1.08,0,0,0,.86.72.49.49,0,0,0,.2-.05c.34-.15.43-.71.2-1.23A1.08,1.08,0,0,0,21.07,28.32Z"/><path class="a2224b83-a8d3-424c-8d67-fb6fa49fc37f" d="M21.11,28.9a.48.48,0,1,0,0-1,.47.47,0,0,0-.48.48h0A.47.47,0,0,0,21.11,28.9Z"/><rect class="a2224b83-a8d3-424c-8d67-fb6fa49fc37f" x="20.53" y="29.1" width="0.18" height="1.5"/><path class="a2224b83-a8d3-424c-8d67-fb6fa49fc37f" d="M20.17,30.86a.12.12,0,0,1-.05-.1.14.14,0,0,1,0-.09l.47-.6.47.59a.18.18,0,0,1,0,.1.12.12,0,0,1-.05.1Z"/><rect class="a2224b83-a8d3-424c-8d67-fb6fa49fc37f" x="20.12" y="30.75" width="1.01" height="1.96"/><path class="a2224b83-a8d3-424c-8d67-fb6fa49fc37f" d="M14,21.25a1.33,1.33,0,0,0,.37.92,1.69,1.69,0,0,1,.43,1H9.18a1.72,1.72,0,0,1,.43-1,1.33,1.33,0,0,0,.37-.92h4m.18-.19H9.77v.15a1.2,1.2,0,0,1-.31.81A1.86,1.86,0,0,0,9,23.34H15a1.94,1.94,0,0,0-.51-1.27,1.16,1.16,0,0,1-.31-.8v-.15Z"/><path class="a2224b83-a8d3-424c-8d67-fb6fa49fc37f" d="M12,6.83h0a.4.4,0,1,1-.4.4.4.4,0,0,1,.4-.4h.05m0-.18H12a.59.59,0,0,0-.53.58A.57.57,0,0,0,12,7.8a.58.58,0,0,0,.05-1.15Z"/><path class="a2224b83-a8d3-424c-8d67-fb6fa49fc37f" d="M12.16,8.51v.75a5,5,0,0,0,0,.55l.38,3H11.4l.38-3V8.51h.35m.18-.17H11.6V9.78L11.19,13h1.6l-.4-3.22a4.34,4.34,0,0,1,0-.51V8.34Z"/><path class="a2224b83-a8d3-424c-8d67-fb6fa49fc37f" d="M13,16.51,13.35,18h0a.36.36,0,0,0,.08.12,1.77,1.77,0,0,1,.27.81H10.26a1.78,1.78,0,0,1,.28-.81l.08-.11h0l.3-1.43H13m.14-.18H10.78L10.45,18l-.08.12a2,2,0,0,0-.32,1.1h3.87a2,2,0,0,0-.32-1.1L13.52,18l-.33-1.61Z"/><path class="a2224b83-a8d3-424c-8d67-fb6fa49fc37f" d="M12.59,13.52a1.07,1.07,0,0,0,.14.55v0a.71.71,0,0,1,.14.32v.64h-1.8v-.64a.94.94,0,0,1,.15-.32v0a1,1,0,0,0,.14-.55h1.21m.17-.19H11.2v.18a.88.88,0,0,1-.11.47,1,1,0,0,0-.2.43v.84h2.19v-.84a1,1,0,0,0-.2-.43.88.88,0,0,1-.11-.47v-.18Z"/><path class="a2224b83-a8d3-424c-8d67-fb6fa49fc37f" d="M12,14.69a.35.35,0,0,1-.35-.35h0a.35.35,0,1,1,.7,0h0A.35.35,0,0,1,12,14.69Z"/><path class="a2224b83-a8d3-424c-8d67-fb6fa49fc37f" d="M12,17.42a.35.35,0,0,1-.35-.35.34.34,0,0,1,.35-.35.35.35,0,0,1,.35.35A.35.35,0,0,1,12,17.42Z"/><path class="a2224b83-a8d3-424c-8d67-fb6fa49fc37f" d="M13.25,15.66a.08.08,0,0,1,.07.08h0a.09.09,0,0,1-.07.06H10.74a.07.07,0,0,1-.07-.06h0a.08.08,0,0,1,.07-.08h2.51m0-.17H10.74a.25.25,0,0,0-.25.25h0a.25.25,0,0,0,.25.24h2.51a.25.25,0,0,0,.25-.24h0A.25.25,0,0,0,13.25,15.49Z"/><path class="a2224b83-a8d3-424c-8d67-fb6fa49fc37f" d="M11.46,23.34H9.55a.43.43,0,0,1,0-.56l1-1.41,1,1.44a.42.42,0,0,1,.07.24.38.38,0,0,1-.1.29Zm-1.82-.18h1.73a.22.22,0,0,0,0-.28l-.87-1.23-.85,1.2a.27.27,0,0,0-.06.17.16.16,0,0,0,.05.11Z"/><path class="a2224b83-a8d3-424c-8d67-fb6fa49fc37f" d="M13,23.34H11a.43.43,0,0,1,0-.56l1-1.41,1,1.44a.41.41,0,0,1,.08.24.44.44,0,0,1-.11.29Zm-1.84-.18h1.75a.33.33,0,0,0,0-.14.24.24,0,0,0-.05-.14L12,21.65l-.8,1.2a.28.28,0,0,0-.07.17v.14Z"/><path class="a2224b83-a8d3-424c-8d67-fb6fa49fc37f" d="M14.43,23.34H12.51a.44.44,0,0,1-.11-.29.46.46,0,0,1,.09-.27l1-1.41,1,1.44a.41.41,0,0,1,.08.24.44.44,0,0,1-.11.29Zm-1.83-.18h1.74a.27.27,0,0,0,0-.28l-.87-1.23-.85,1.2a.27.27,0,0,0-.06.17.21.21,0,0,0,0,.11Z"/><path class="a2224b83-a8d3-424c-8d67-fb6fa49fc37f" d="M9.61,17.08a.51.51,0,0,1,.15.31h0a.51.51,0,0,1-.15.31v0h0a.65.65,0,0,1,0-.51h0v0m-.19-.38a.27.27,0,0,1,0,.34.74.74,0,0,0-.09.36.7.7,0,0,0,.09.35.3.3,0,0,1,.06.18.27.27,0,0,1-.06.17A.45.45,0,0,0,9.61,18a.69.69,0,0,0,0-1.18A.45.45,0,0,0,9.42,16.73Z"/><path class="a2224b83-a8d3-424c-8d67-fb6fa49fc37f" d="M10.46,18a.64.64,0,0,0-.62-.5v-.18a.8.8,0,0,1,.8.64Z"/><path class="a2224b83-a8d3-424c-8d67-fb6fa49fc37f" d="M14.37,17.08v0h0a.45.45,0,0,1,.05.25.58.58,0,0,1-.05.26h0v0a.46.46,0,0,1-.15-.31h0a.46.46,0,0,1,.15-.31m.19-.38a.42.42,0,0,0-.18.11.68.68,0,0,0-.26.92.63.63,0,0,0,.26.25.57.57,0,0,0,.18.12.58.58,0,0,1-.06-.17.28.28,0,0,1,.06-.18.73.73,0,0,0,.09-.35.81.81,0,0,0-.09-.37.23.23,0,0,1-.06-.16A.49.49,0,0,1,14.56,16.67Z"/><path class="a2224b83-a8d3-424c-8d67-fb6fa49fc37f" d="M13.53,18l-.17,0a.8.8,0,0,1,.8-.61v.18A.65.65,0,0,0,13.53,18Z"/><path class="a2224b83-a8d3-424c-8d67-fb6fa49fc37f" d="M10.12,13.9a.58.58,0,0,1,.14.33h0a.55.55,0,0,1-.14.32V14.5h0a.54.54,0,0,1-.06-.25.58.58,0,0,1,.06-.26h0v0m-.19-.38a.69.69,0,0,1,.05.13.23.23,0,0,1-.05.18.56.56,0,0,0-.09.35.57.57,0,0,0,.09.36.34.34,0,0,1,.05.17.35.35,0,0,1-.05.18.71.71,0,0,0,.18-.12.67.67,0,0,0,.24-.92.72.72,0,0,0-.24-.25.57.57,0,0,0-.18-.12Z"/><path class="a2224b83-a8d3-424c-8d67-fb6fa49fc37f" d="M10.89,14.67a.62.62,0,0,0-.55-.32v-.19a.81.81,0,0,1,.71.41Z"/><path class="a2224b83-a8d3-424c-8d67-fb6fa49fc37f" d="M13.85,13.91h0a.52.52,0,0,1,0,.52h0a.55.55,0,0,1-.14-.32h0a.5.5,0,0,1,.14-.31m.2-.39a.76.76,0,0,0-.19.12.7.7,0,0,0-.24.94.69.69,0,0,0,.24.24.45.45,0,0,0,.19.11.49.49,0,0,1-.06-.17.32.32,0,0,1,.06-.18.6.6,0,0,0,.08-.35.64.64,0,0,0-.08-.36L14,13.7a.34.34,0,0,1,.05-.17Z"/><path class="a2224b83-a8d3-424c-8d67-fb6fa49fc37f" d="M13.08,14.67l-.16-.1a.82.82,0,0,1,.72-.41v.19A.62.62,0,0,0,13.08,14.67Z"/><path class="a2224b83-a8d3-424c-8d67-fb6fa49fc37f" d="M8.61,19.48a.56.56,0,0,1,.15.32h0a.48.48,0,0,1-.15.32v0h0a.48.48,0,0,1-.07-.26.43.43,0,0,1,.07-.25h0v-.05m-.19-.38a.64.64,0,0,1,.06.18.27.27,0,0,1-.06.17.74.74,0,0,0-.09.36.73.73,0,0,0,.09.35.3.3,0,0,1,.06.18.49.49,0,0,1-.06.17.47.47,0,0,0,.19-.12.68.68,0,0,0,0-1.17A.76.76,0,0,0,8.42,19.14Z"/><path class="a2224b83-a8d3-424c-8d67-fb6fa49fc37f" d="M9.47,20.46a.65.65,0,0,0-.64-.54v-.18a.8.8,0,0,1,.81.7Z"/><path class="a2224b83-a8d3-424c-8d67-fb6fa49fc37f" d="M15.38,19.48v.05h0a.44.44,0,0,1,.06.25.42.42,0,0,1-.06.25h0v0a.5.5,0,0,1-.14-.31h0a.55.55,0,0,1,.14-.32m.19-.38a.57.57,0,0,0-.18.12.68.68,0,0,0,0,1.17.57.57,0,0,0,.18.12.26.26,0,0,1,0-.34.56.56,0,0,0,.09-.35.62.62,0,0,0-.09-.37.28.28,0,0,1,0-.16.48.48,0,0,1,0-.18Z"/><path class="a2224b83-a8d3-424c-8d67-fb6fa49fc37f" d="M14.53,20.46h-.18a.81.81,0,0,1,.8-.7V20A.63.63,0,0,0,14.53,20.46Z"/><path class="a2224b83-a8d3-424c-8d67-fb6fa49fc37f" d="M14,19.62h0a.48.48,0,0,1,.46.48.47.47,0,0,1-.47.47H10a.48.48,0,0,1,0-.95h4m0-.18H10a.66.66,0,0,0-.65.66.65.65,0,0,0,.65.65h4a.65.65,0,0,0,.65-.65A.66.66,0,0,0,14,19.44Z"/><polygon class="a2224b83-a8d3-424c-8d67-fb6fa49fc37f" points="12.8 20.64 13.1 20.64 13.79 20.1 13.11 19.56 12.81 19.56 13.49 20.1 12.8 20.64"/><polygon class="a2224b83-a8d3-424c-8d67-fb6fa49fc37f" points="11.2 20.64 10.52 20.1 11.2 19.56 10.9 19.56 10.22 20.1 10.9 20.64 11.2 20.64"/><path class="a2224b83-a8d3-424c-8d67-fb6fa49fc37f" d="M12,20.45a.36.36,0,1,1,.35-.35A.36.36,0,0,1,12,20.45Z"/><path class="a2224b83-a8d3-424c-8d67-fb6fa49fc37f" d="M14.91,23.83h0a.47.47,0,1,1,0,.94H9a.47.47,0,0,1-.46-.47A.46.46,0,0,1,9,23.83h5.87m0-.19H9A.66.66,0,1,0,9,25h5.89a.66.66,0,0,0,0-1.32Z"/><polygon class="a2224b83-a8d3-424c-8d67-fb6fa49fc37f" points="13.44 24.91 13.73 24.91 14.51 24.3 13.79 23.74 13.49 23.74 14.21 24.3 13.44 24.91"/><polygon class="a2224b83-a8d3-424c-8d67-fb6fa49fc37f" points="12.7 24.91 12.99 24.91 13.77 24.3 13.05 23.74 12.75 23.74 13.48 24.3 12.7 24.91"/><polygon class="a2224b83-a8d3-424c-8d67-fb6fa49fc37f" points="11.28 24.91 10.5 24.3 11.22 23.74 10.92 23.74 10.21 24.3 10.98 24.91 11.28 24.91"/><polygon class="a2224b83-a8d3-424c-8d67-fb6fa49fc37f" points="10.57 24.91 9.8 24.3 10.51 23.74 10.21 23.74 9.49 24.3 10.27 24.91 10.57 24.91"/><path class="a2224b83-a8d3-424c-8d67-fb6fa49fc37f" d="M12,24.65a.35.35,0,0,1-.35-.35A.34.34,0,0,1,12,24a.35.35,0,0,1,.35.35A.35.35,0,0,1,12,24.65Z"/><path class="a2224b83-a8d3-424c-8d67-fb6fa49fc37f" d="M8.9,24.65a.36.36,0,0,1-.36-.35.36.36,0,0,1,.71,0A.35.35,0,0,1,8.9,24.65Z"/><path class="a2224b83-a8d3-424c-8d67-fb6fa49fc37f" d="M15.08,24.65a.35.35,0,0,1-.35-.35.36.36,0,0,1,.71,0h0A.36.36,0,0,1,15.08,24.65Z"/><path class="a2224b83-a8d3-424c-8d67-fb6fa49fc37f" d="M13.79,18.94h-.72a.24.24,0,0,0,0-.12.38.38,0,0,0-.08-.23l-.16-.2.51-.65-.05-.24-.58.73L12,17.29l-.75.94-.61-.8-.07.22.57.71-.15.18a.46.46,0,0,0-.1.26v.12h-.8v.18h3.7Zm-2.41,0h-.27a.25.25,0,0,1,0-.12.35.35,0,0,1,.06-.14l.11-.15.13.17a.26.26,0,0,1,.05.12A.17.17,0,0,1,11.38,18.94Zm1.1-.38a.52.52,0,0,0-.1.26.24.24,0,0,0,0,.12h-.79a.24.24,0,0,0,0-.12.63.63,0,0,0-.08-.23l-.16-.2.62-.81.64.81Zm.39.38h-.26a.17.17,0,0,1,0-.12.24.24,0,0,1,0-.14l.12-.15.13.17a.25.25,0,0,1,0,.12A.17.17,0,0,1,12.87,18.94Z"/><polygon class="a2224b83-a8d3-424c-8d67-fb6fa49fc37f" points="13.11 21.17 12.73 21.7 12.35 21.17 12.13 21.17 12.73 22.02 13.33 21.17 13.11 21.17"/><polygon class="a2224b83-a8d3-424c-8d67-fb6fa49fc37f" points="11.63 21.17 11.25 21.7 10.87 21.17 10.65 21.17 11.25 22.02 11.85 21.17 11.63 21.17"/><rect class="a2224b83-a8d3-424c-8d67-fb6fa49fc37f" x="78.86" y="6.47" width="1.74" height="17.76"/><g class="b05f83d2-b0cf-48bc-8bfc-ae13b11be9e0"><g class="b05f83d2-b0cf-48bc-8bfc-ae13b11be9e0"><path class="a39b7ed1-917f-4ed3-b575-0fb8ee1e8ba2" d="M34,30.41l-.09.61a5,5,0,0,1-.9.14c-1.32,0-2.06-.58-2.06-2.52,0-1.62.67-2.38,2-2.38a2.31,2.31,0,0,1,1.06.26,2.3,2.3,0,0,0-.29.63H33.7a1.15,1.15,0,0,0-.77-.24c-.65,0-1,.42-1,1.77,0,1.53.44,1.83,1,1.83a3.17,3.17,0,0,0,1-.16Z"/></g><g class="b05f83d2-b0cf-48bc-8bfc-ae13b11be9e0"><path class="a39b7ed1-917f-4ed3-b575-0fb8ee1e8ba2" d="M35.45,29.52v.2a6.63,6.63,0,0,0,0,1.39h-.83a5.65,5.65,0,0,0,.06-1.39V28.9a5.65,5.65,0,0,0-.06-1.39h.83a6.77,6.77,0,0,0,0,1.39V29h1.07V28.9a6.77,6.77,0,0,0-.05-1.39h.83a6.77,6.77,0,0,0,0,1.39v.82a6.63,6.63,0,0,0,0,1.39h-.83a6.77,6.77,0,0,0,.05-1.39v-.2Z"/><path class="a39b7ed1-917f-4ed3-b575-0fb8ee1e8ba2" d="M38,30V28.9a6.63,6.63,0,0,0,0-1.39h.83a6.7,6.7,0,0,0,0,1.39v1.17c0,.39.17.61.53.61s.53-.22.53-.61V28.9a5.6,5.6,0,0,0-.06-1.39h.84a5.54,5.54,0,0,0-.06,1.39V30a1.09,1.09,0,0,1-1.25,1.15C38.41,31.15,38,30.71,38,30Z"/><path class="a39b7ed1-917f-4ed3-b575-0fb8ee1e8ba2" d="M41.16,31.11a6.63,6.63,0,0,0,.05-1.39V28.9a6.77,6.77,0,0,0-.05-1.39H42a8.44,8.44,0,0,0,0,1.39v1.72a6,6,0,0,0,1.3-.08c0,.14,0,.22,0,.3a2.26,2.26,0,0,0,0,.27Z"/><path class="a39b7ed1-917f-4ed3-b575-0fb8ee1e8ba2" d="M45.11,30.31h-.92l-.24.81h-.64l1.17-3.64h.43l1.17,3.64h-.73Zm-.79-.47H45l-.32-1.1Z"/></g><g class="b05f83d2-b0cf-48bc-8bfc-ae13b11be9e0"><path class="a39b7ed1-917f-4ed3-b575-0fb8ee1e8ba2" d="M46.45,31.11a6.63,6.63,0,0,0,0-1.39V28.9a5.65,5.65,0,0,0-.06-1.39h.81a11.23,11.23,0,0,0,0,1.39v1.72a6.13,6.13,0,0,0,1.3-.08,1.85,1.85,0,0,0,0,.3,2.26,2.26,0,0,0,0,.27Z"/></g><g class="b05f83d2-b0cf-48bc-8bfc-ae13b11be9e0"><path class="a39b7ed1-917f-4ed3-b575-0fb8ee1e8ba2" d="M48.66,29.27c0-1.21.44-1.8,1.38-1.8s1.38.59,1.38,1.8S51,31.15,50,31.15,48.66,30.53,48.66,29.27Zm.74,0c0,1,.21,1.38.64,1.38s.64-.35.64-1.38-.21-1.36-.64-1.36S49.4,28.24,49.4,29.3Z"/><path class="a39b7ed1-917f-4ed3-b575-0fb8ee1e8ba2" d="M52,28.1a3.21,3.21,0,0,0,0-.63h.47l1.31,2.14V28.9a5.54,5.54,0,0,0-.06-1.39h.8a6.7,6.7,0,0,0-.05,1.39v2.24H54l-1.28-2v.62a6.19,6.19,0,0,0,.06,1.39H52A5.54,5.54,0,0,0,52,29.72Z"/><path class="a39b7ed1-917f-4ed3-b575-0fb8ee1e8ba2" d="M56.88,30a3.59,3.59,0,0,0-.05-.75l.43,0a2.38,2.38,0,0,0,.36,0c0,.46,0,.62,0,.81v1a8.48,8.48,0,0,1-1,.11c-1,0-1.52-.4-1.52-1.89,0-1.25.65-1.79,1.6-1.79a2.11,2.11,0,0,1,.92.21,1.53,1.53,0,0,0-.21.5h-.08a.91.91,0,0,0-.64-.24c-.52,0-.86.33-.86,1.35s.3,1.39.76,1.39a2,2,0,0,0,.27,0Z"/></g><g class="b05f83d2-b0cf-48bc-8bfc-ae13b11be9e0"><path class="a39b7ed1-917f-4ed3-b575-0fb8ee1e8ba2" d="M59.07,29.14h0v.57a6.63,6.63,0,0,0,0,1.39h-.83a5.65,5.65,0,0,0,.06-1.39V28.9a5.65,5.65,0,0,0-.06-1.39h.83a6.77,6.77,0,0,0,0,1.39Zm.08.19s0,0-.06,0,0,0,0,0v-.17a0,0,0,0,0,0,0s0,0,.06-.05l1-1.62h.78l-1.1,1.74L61,31.11h-.8Z"/></g><g class="b05f83d2-b0cf-48bc-8bfc-ae13b11be9e0"><path class="a39b7ed1-917f-4ed3-b575-0fb8ee1e8ba2" d="M61.12,29.27c0-1.21.43-1.8,1.37-1.8s1.38.59,1.38,1.8-.44,1.88-1.38,1.88S61.12,30.53,61.12,29.27Zm.73,0c0,1,.22,1.38.64,1.38s.65-.35.65-1.38-.22-1.36-.65-1.36S61.85,28.24,61.85,29.3Z"/><path class="a39b7ed1-917f-4ed3-b575-0fb8ee1e8ba2" d="M64.5,28.8c0-.26,0-1,0-1.29.35,0,.7,0,1.09,0,.91,0,1.27.43,1.27,1.08a1,1,0,0,1-.69,1L67,31.12l-.46,0-.36,0-.77-1.45h-.22v0a6.63,6.63,0,0,0,0,1.39h-.82a6.77,6.77,0,0,0,0-1.39Zm.72.39h.34c.28,0,.54-.15.54-.61s-.19-.64-.47-.64a2.64,2.64,0,0,0-.39,0c0,.26,0,.6,0,.84Z"/><path class="a39b7ed1-917f-4ed3-b575-0fb8ee1e8ba2" d="M67.54,28.1a2.57,2.57,0,0,0,0-.63H68l1.32,2.14V28.9a5.54,5.54,0,0,0-.06-1.39H70a6.7,6.7,0,0,0,0,1.39v2.24h-.47l-1.28-2v.62a5.54,5.54,0,0,0,.06,1.39h-.81a5.54,5.54,0,0,0,.06-1.39Z"/></g><g class="b05f83d2-b0cf-48bc-8bfc-ae13b11be9e0"><path class="a39b7ed1-917f-4ed3-b575-0fb8ee1e8ba2" d="M72.17,29.62V28.16a7.52,7.52,0,0,0-.08-1.86h1.12a8.57,8.57,0,0,0-.07,1.86v1.56c0,.52.22.81.7.81s.71-.29.71-.81V28.16a8.57,8.57,0,0,0-.07-1.86h1.11a8.57,8.57,0,0,0-.07,1.86v1.46c0,1-.57,1.54-1.68,1.54A1.46,1.46,0,0,1,72.17,29.62Z"/></g><g class="b05f83d2-b0cf-48bc-8bfc-ae13b11be9e0"><path class="a39b7ed1-917f-4ed3-b575-0fb8ee1e8ba2" d="M76.37,28.1a2.57,2.57,0,0,0,0-.63h.47l1.32,2.14V28.9a6.19,6.19,0,0,0-.06-1.39h.8a6.7,6.7,0,0,0,0,1.39v2.24h-.47l-1.28-2v.62a5.54,5.54,0,0,0,.06,1.39h-.81a5.54,5.54,0,0,0,.06-1.39Z"/><path class="a39b7ed1-917f-4ed3-b575-0fb8ee1e8ba2" d="M80.09,31.11h-.41a6.77,6.77,0,0,0,0-1.39V28.9a6.77,6.77,0,0,0,0-1.39h.82a5.65,5.65,0,0,0-.06,1.39v.82a5.65,5.65,0,0,0,.06,1.39Z"/><path class="a39b7ed1-917f-4ed3-b575-0fb8ee1e8ba2" d="M81,27.5h.82c0,.22.13.66.61,2.47.37-1.39.42-1.7.61-2.47h.74c-.34,1.08-.44,1.56-1.06,3.61H82C81.31,28.54,81.1,27.74,81,27.5Z"/><path class="a39b7ed1-917f-4ed3-b575-0fb8ee1e8ba2" d="M86.3,27.51a2,2,0,0,0,0,.22V28A8,8,0,0,0,85,28V29c.63,0,1.06,0,1.21,0,0,.12,0,.19,0,.27a2.45,2.45,0,0,0,0,.25,10.17,10.17,0,0,0-1.21,0v1.19a8.18,8.18,0,0,0,1.38-.06c0,.13,0,.21,0,.28a2.12,2.12,0,0,0,0,.24H84.18a5.54,5.54,0,0,0,.06-1.39V28.9a5.54,5.54,0,0,0-.06-1.39Z"/><path class="a39b7ed1-917f-4ed3-b575-0fb8ee1e8ba2" d="M87,28.8c0-.26,0-1,0-1.29.35,0,.7,0,1.09,0,.91,0,1.27.43,1.27,1.08a1,1,0,0,1-.69,1l.89,1.54-.46,0-.36,0-.77-1.45h-.22v0a6.63,6.63,0,0,0,0,1.39H86.9a6.77,6.77,0,0,0,0-1.39Zm.72.39H88c.28,0,.54-.15.54-.61s-.19-.64-.47-.64a2.64,2.64,0,0,0-.39,0c0,.26,0,.6,0,.84Z"/><path class="a39b7ed1-917f-4ed3-b575-0fb8ee1e8ba2" d="M91.34,30.08c0-.33-.3-.46-.63-.59s-.83-.38-.83-1,.48-1,1.23-1a1.54,1.54,0,0,1,.86.24,2.57,2.57,0,0,0-.22.48h-.09c-.08-.17-.29-.25-.58-.25a.44.44,0,0,0-.48.47c0,.41.3.51.59.62s.88.34.88,1-.52,1.09-1.28,1.09a1.56,1.56,0,0,1-1-.3,5.58,5.58,0,0,0,.25-.55h.1a.74.74,0,0,0,.65.36C91.16,30.66,91.34,30.46,91.34,30.08Z"/><path class="a39b7ed1-917f-4ed3-b575-0fb8ee1e8ba2" d="M93.17,31.11h-.41a6.77,6.77,0,0,0,0-1.39V28.9a6.77,6.77,0,0,0,0-1.39h.82a5.65,5.65,0,0,0-.06,1.39v.82a5.65,5.65,0,0,0,.06,1.39Z"/><path class="a39b7ed1-917f-4ed3-b575-0fb8ee1e8ba2" d="M96.52,27.51a2.44,2.44,0,0,0,0,.28V28c-.31,0-.54,0-.84,0v1.72a6.63,6.63,0,0,0,0,1.39H94.9A5.65,5.65,0,0,0,95,29.72V28c-.3,0-.54,0-.84,0v-.24a1.23,1.23,0,0,0,0-.28Z"/><path class="a39b7ed1-917f-4ed3-b575-0fb8ee1e8ba2" d="M98.69,27.51h.79c-.39.69-.75,1.39-1.09,2.07a6.52,6.52,0,0,0,.06,1.54h-.82a7.66,7.66,0,0,0,.05-1.54c-.35-.7-.7-1.38-1.09-2.07h.79c.19.45.39.91.66,1.41A14.56,14.56,0,0,0,98.69,27.51Z"/></g></g><path class="a2224b83-a8d3-424c-8d67-fb6fa49fc37f" d="M32.27,15v.71a7.49,7.49,0,0,0,6.12,6.78h6.32v1.75H38.43a9.31,9.31,0,0,1-7.83-8.57V15a9.32,9.32,0,0,1,7.83-8.57h6.28V8.22H38.39A7.5,7.5,0,0,0,32.27,15Z"/><path class="a2224b83-a8d3-424c-8d67-fb6fa49fc37f" d="M35.47,15.36a4.18,4.18,0,0,0,3.38,4h5.86v1.85h-6a5.89,5.89,0,0,1,0-11.69h6v1.81H38.86A4.21,4.21,0,0,0,35.47,15.36Z"/><rect class="a2224b83-a8d3-424c-8d67-fb6fa49fc37f" x="46.45" y="6.47" width="1.9" height="17.76"/><path class="a2224b83-a8d3-424c-8d67-fb6fa49fc37f" d="M60.71,16.06v8.18H59V16.06a5.68,5.68,0,0,0-4.58-4.31,5.28,5.28,0,0,0-3,.42,6.66,6.66,0,0,0-1.85,1.26v-7h1.85v4A6.44,6.44,0,0,1,54.93,10,7.17,7.17,0,0,1,60.71,16.06Z"/><path class="a2224b83-a8d3-424c-8d67-fb6fa49fc37f" d="M57.66,16.28v8H55.85V16.71a2.29,2.29,0,0,0-4.41-.23v7.76H49.59V16.87a4.59,4.59,0,0,1,1.85-3.13,3.68,3.68,0,0,1,1.36-.55A4.45,4.45,0,0,1,57.66,16.28Z"/><path class="a2224b83-a8d3-424c-8d67-fb6fa49fc37f" d="M77.17,10v7.47a8,8,0,0,1-6,6.59A6.7,6.7,0,0,1,68,24a8,8,0,0,1-6-6.59V10h2.07v7.47a5.51,5.51,0,0,0,11,0V10Z"/><path class="a2224b83-a8d3-424c-8d67-fb6fa49fc37f" d="M73.82,10v7.43a4.45,4.45,0,0,1-3.91,3.49h-.57a4.48,4.48,0,0,1-3.92-3.49V10h2v7.15A2.72,2.72,0,0,0,69.62,19a2.71,2.71,0,0,0,2.18-1.9V10Z"/><rect class="a2224b83-a8d3-424c-8d67-fb6fa49fc37f" x="81.96" y="6.47" width="1.74" height="17.76"/><path class="a2224b83-a8d3-424c-8d67-fb6fa49fc37f" d="M96.45,24.24V16.62A4,4,0,1,0,93,21.13l.16,0V19.36H92.08a2.24,2.24,0,0,1-.56-4.23,2.32,2.32,0,0,1,2.83,1,2.2,2.2,0,0,1,.23.62v7.52Z"/><path class="a2224b83-a8d3-424c-8d67-fb6fa49fc37f" d="M99.5,24.24V16.06a7.15,7.15,0,1,0-14,3,7.53,7.53,0,0,0,5.81,5.14h1.79V22.39H91.88a5.27,5.27,0,0,1-3.11-9,5.48,5.48,0,0,1,4-1.53,5.38,5.38,0,0,1,4.7,3.32,3.87,3.87,0,0,1,.24,1.07v8Z"/><path class="ef3a8e9f-1709-4bbe-b008-ee388cb34ae6" d="M51,35.58h.22l1.27,1.87,1.27-1.87h.22v3.16H53.7V36l-1.25,1.82h0L51.18,36v2.75H51Z"/><path class="ef3a8e9f-1709-4bbe-b008-ee388cb34ae6" d="M54.64,38.07h0c0-.48.41-.75,1-.75a2.72,2.72,0,0,1,.77.1v-.1a.66.66,0,0,0-.76-.7,1.51,1.51,0,0,0-.72.18l-.09-.19a1.87,1.87,0,0,1,.82-.2,1,1,0,0,1,.73.25.91.91,0,0,1,.24.65v1.44h-.22v-.38a1.05,1.05,0,0,1-.88.44A.81.81,0,0,1,54.64,38.07Zm1.77-.19v-.26a3,3,0,0,0-.78-.11c-.49,0-.76.22-.76.54h0c0,.33.32.53.67.53A.79.79,0,0,0,56.41,37.88Z"/><path class="ef3a8e9f-1709-4bbe-b008-ee388cb34ae6" d="M57.42,36.44h.22v.42a.92.92,0,0,1,.84-.48.88.88,0,0,1,.92.95v1.41h-.22V37.37a.71.71,0,0,0-.74-.79.8.8,0,0,0-.8.83v1.33h-.22Z"/><path class="ef3a8e9f-1709-4bbe-b008-ee388cb34ae6" d="M60,38.07h0c0-.48.41-.75,1-.75a2.77,2.77,0,0,1,.77.1v-.1a.66.66,0,0,0-.76-.7,1.58,1.58,0,0,0-.73.18l-.08-.19a1.87,1.87,0,0,1,.82-.2,1,1,0,0,1,.73.25.9.9,0,0,1,.23.65v1.44h-.21v-.38a1.06,1.06,0,0,1-.88.44A.81.81,0,0,1,60,38.07Zm1.77-.19v-.26a3,3,0,0,0-.78-.11c-.49,0-.76.22-.76.54h0c0,.33.32.53.67.53A.79.79,0,0,0,61.78,37.88Z"/><path class="ef3a8e9f-1709-4bbe-b008-ee388cb34ae6" d="M62.75,39.12l.13-.18a1.51,1.51,0,0,0,.93.33.83.83,0,0,0,.9-.9V38a1.15,1.15,0,0,1-1,.53,1.1,1.1,0,0,1-1.11-1.09h0a1.1,1.1,0,0,1,1.11-1.09,1.13,1.13,0,0,1,1,.52v-.46h.23v1.94a1.07,1.07,0,0,1-.3.79,1.21,1.21,0,0,1-.84.3A1.68,1.68,0,0,1,62.75,39.12Zm2-1.64h0a.92.92,0,0,0-1-.88.86.86,0,0,0-.89.88h0a.89.89,0,0,0,.89.89A.93.93,0,0,0,64.73,37.48Z"/><path class="ef3a8e9f-1709-4bbe-b008-ee388cb34ae6" d="M65.62,37.59h0a1.13,1.13,0,0,1,1.09-1.2,1.1,1.1,0,0,1,1.06,1.21v.09H65.85a.92.92,0,0,0,.91.91,1,1,0,0,0,.79-.36l.15.13a1.21,1.21,0,0,1-1,.44A1.15,1.15,0,0,1,65.62,37.59Zm1.91-.11a.86.86,0,0,0-.83-.9.91.91,0,0,0-.85.9Z"/><path class="ef3a8e9f-1709-4bbe-b008-ee388cb34ae6" d="M68.27,37.6h0a1.16,1.16,0,0,1,1.12-1.21,1.11,1.11,0,0,1,1,.55V35.44h.22v3.3h-.22v-.51a1.12,1.12,0,0,1-1,.57A1.15,1.15,0,0,1,68.27,37.6Zm2.08,0h0a1,1,0,0,0-.94-1,.9.9,0,0,0-.9,1h0a.93.93,0,0,0,.9,1A1,1,0,0,0,70.35,37.59Z"/><path class="ef3a8e9f-1709-4bbe-b008-ee388cb34ae6" d="M73,38.24v.5h-.22v-3.3H73V37a1.13,1.13,0,0,1,1-.57,1.14,1.14,0,0,1,1.12,1.2h0a1.15,1.15,0,0,1-1.12,1.21A1.12,1.12,0,0,1,73,38.24Zm1.83-.64h0a.93.93,0,0,0-.9-1,1,1,0,0,0-.94,1h0a1,1,0,0,0,.94,1A.89.89,0,0,0,74.81,37.6Z"/><path class="ef3a8e9f-1709-4bbe-b008-ee388cb34ae6" d="M75.46,39.38l.07-.2a.84.84,0,0,0,.4.09c.24,0,.4-.14.57-.54l-1.11-2.29h.26l1,2.06.83-2.06h.24l-1,2.38c-.2.49-.44.66-.77.66A1,1,0,0,1,75.46,39.38Z"/><path class="b9651fc4-deb6-4c38-87b1-e2f50c52e4f4" d="M59.8,59.76H60V62h1.41v.17H59.8Z"/><path class="b9651fc4-deb6-4c38-87b1-e2f50c52e4f4" d="M61.9,59.73h.21V60H61.9Zm0,.69h.17v1.76h-.17Z"/><path class="b9651fc4-deb6-4c38-87b1-e2f50c52e4f4" d="M62.57,60.42h.2L63.43,62l.68-1.57h.19l-.79,1.77h-.15Z"/><path class="b9651fc4-deb6-4c38-87b1-e2f50c52e4f4" d="M64.76,59.73H65V60h-.21Zm0,.69H65v1.76h-.17Z"/><path class="b9651fc4-deb6-4c38-87b1-e2f50c52e4f4" d="M65.62,60.42h.16v.33a.7.7,0,0,1,.64-.37.67.67,0,0,1,.7.72v1.08H67v-1a.54.54,0,0,0-.56-.6.6.6,0,0,0-.61.63v1h-.16Z"/><path class="b9651fc4-deb6-4c38-87b1-e2f50c52e4f4" d="M67.69,62.47l.1-.14a1.18,1.18,0,0,0,.71.25.63.63,0,0,0,.69-.69v-.25a.86.86,0,0,1-.73.41.84.84,0,0,1-.85-.83h0a.84.84,0,0,1,.85-.83.85.85,0,0,1,.73.39v-.35h.17V61.9a.82.82,0,0,1-.22.6.9.9,0,0,1-.64.23A1.42,1.42,0,0,1,67.69,62.47Zm1.51-1.26h0a.69.69,0,0,0-.72-.67.65.65,0,0,0-.68.66h0a.66.66,0,0,0,.68.67A.7.7,0,0,0,69.2,61.21Z"/><path class="b9651fc4-deb6-4c38-87b1-e2f50c52e4f4" d="M81.34,59.78h.18V62h1.41v.17H81.34Z"/><path class="b9651fc4-deb6-4c38-87b1-e2f50c52e4f4" d="M83.43,59.75h.22V60h-.22Zm0,.69h.16V62.2h-.16Z"/><path class="b9651fc4-deb6-4c38-87b1-e2f50c52e4f4" d="M84.39,60.59h-.25v-.15h.25v-.17a.64.64,0,0,1,.16-.46.5.5,0,0,1,.37-.14.71.71,0,0,1,.26,0v.16a.82.82,0,0,0-.26,0c-.24,0-.36.14-.36.44v.17h.62v.15h-.62V62.2h-.17Z"/><path class="b9651fc4-deb6-4c38-87b1-e2f50c52e4f4" d="M85.38,61.32h0a.86.86,0,0,1,.84-.91.83.83,0,0,1,.8.92v.07H85.56a.7.7,0,0,0,.69.69.77.77,0,0,0,.6-.28l.12.11a.94.94,0,0,1-.73.33A.87.87,0,0,1,85.38,61.32Zm1.46-.09a.65.65,0,0,0-.63-.68.69.69,0,0,0-.65.68Z"/><path class="b9651fc4-deb6-4c38-87b1-e2f50c52e4f4" d="M33.54,59.78h.18V62h1.42v.17h-1.6Z"/><path class="b9651fc4-deb6-4c38-87b1-e2f50c52e4f4" d="M35.48,61.32h0a.86.86,0,0,1,.84-.91.83.83,0,0,1,.8.92v.07H35.66a.7.7,0,0,0,.69.69A.79.79,0,0,0,37,61.8l.11.11a.93.93,0,0,1-.72.33A.88.88,0,0,1,35.48,61.32Zm1.46-.09a.65.65,0,0,0-.63-.68.69.69,0,0,0-.65.68Z"/><path class="b9651fc4-deb6-4c38-87b1-e2f50c52e4f4" d="M37.47,61.69h0c0-.37.32-.57.77-.57a2.24,2.24,0,0,1,.58.07v-.07a.5.5,0,0,0-.57-.54,1.25,1.25,0,0,0-.56.14l-.06-.15a1.39,1.39,0,0,1,.63-.15.8.8,0,0,1,.55.19.67.67,0,0,1,.18.5v1.1h-.17v-.3a.79.79,0,0,1-.67.34A.61.61,0,0,1,37.47,61.69Zm1.36-.15v-.2a2.29,2.29,0,0,0-.6-.08c-.37,0-.58.16-.58.41h0c0,.25.24.4.51.4A.61.61,0,0,0,38.83,61.54Z"/><path class="b9651fc4-deb6-4c38-87b1-e2f50c52e4f4" d="M39.6,60.44h.17v.5a.83.83,0,0,1,.77-.53v.19h0a.78.78,0,0,0-.76.88v.72H39.6Z"/><path class="b9651fc4-deb6-4c38-87b1-e2f50c52e4f4" d="M41,60.44h.17v.33a.7.7,0,0,1,.64-.37.67.67,0,0,1,.7.72V62.2h-.17V61.15a.54.54,0,0,0-.56-.6.6.6,0,0,0-.61.63v1H41Z"/><path class="b9651fc4-deb6-4c38-87b1-e2f50c52e4f4" d="M43.09,59.75h.21V60h-.21Zm0,.69h.17V62.2h-.17Z"/><path class="b9651fc4-deb6-4c38-87b1-e2f50c52e4f4" d="M44,60.44h.16v.33a.7.7,0,0,1,.64-.37.67.67,0,0,1,.7.72V62.2h-.17V61.15a.54.54,0,0,0-.56-.6.6.6,0,0,0-.61.63v1H44Z"/><path class="b9651fc4-deb6-4c38-87b1-e2f50c52e4f4" d="M46,62.49l.1-.14a1.16,1.16,0,0,0,.71.25.63.63,0,0,0,.69-.69v-.25a.86.86,0,0,1-.73.41.84.84,0,0,1-.85-.83h0a.83.83,0,0,1,.85-.83.85.85,0,0,1,.73.39v-.35h.17v1.48a.82.82,0,0,1-.22.6.9.9,0,0,1-.64.23A1.33,1.33,0,0,1,46,62.49Zm1.51-1.26h0a.69.69,0,0,0-.72-.67.65.65,0,0,0-.68.66h0a.66.66,0,0,0,.68.67A.7.7,0,0,0,47.53,61.23Z"/><path class="b770929d-34e2-4069-ac51-ada931c90e82" d="M69.94,61.84l.11-.13a1.15,1.15,0,0,0,.84.34c.35,0,.58-.19.58-.46h0c0-.24-.13-.39-.65-.49s-.79-.3-.79-.66h0a.68.68,0,0,1,.75-.62,1.17,1.17,0,0,1,.8.29l-.11.13a1,1,0,0,0-.7-.26c-.34,0-.57.2-.57.44h0c0,.24.13.39.68.51s.77.3.77.64h0a.69.69,0,0,1-.77.64A1.31,1.31,0,0,1,69.94,61.84Z"/><path class="b770929d-34e2-4069-ac51-ada931c90e82" d="M72.25,61.74V60.63H72v-.15h.24v-.54h.17v.54H73v.15h-.59v1.09c0,.25.14.33.34.33A.51.51,0,0,0,73,62v.16a.64.64,0,0,1-.28.06A.44.44,0,0,1,72.25,61.74Z"/><path class="b770929d-34e2-4069-ac51-ada931c90e82" d="M73.37,62.65l0-.15a.54.54,0,0,0,.29.07c.18,0,.3-.11.42-.4l-.81-1.69h.19l.7,1.52.61-1.52H75l-.73,1.76c-.15.35-.32.48-.57.48A.72.72,0,0,1,73.37,62.65Z"/><path class="b770929d-34e2-4069-ac51-ada931c90e82" d="M75.48,59.75h.16v2.43h-.16Z"/><path class="b770929d-34e2-4069-ac51-ada931c90e82" d="M76.17,61.33h0a.83.83,0,0,1,.8-.88.8.8,0,0,1,.78.89v.06H76.34a.67.67,0,0,0,.67.67.76.76,0,0,0,.58-.26l.11.1a.9.9,0,0,1-.7.32A.84.84,0,0,1,76.17,61.33Zm1.41-.08a.64.64,0,0,0-.61-.66.66.66,0,0,0-.63.66Z"/><path class="b770929d-34e2-4069-ac51-ada931c90e82" d="M87.48,61.86l.11-.13a1.15,1.15,0,0,0,.84.34c.35,0,.58-.19.58-.46h0c0-.24-.13-.39-.65-.49s-.79-.3-.79-.66h0a.68.68,0,0,1,.75-.62,1.17,1.17,0,0,1,.8.29l-.11.13a1,1,0,0,0-.7-.26c-.34,0-.57.2-.57.44h0c0,.24.13.39.68.5s.77.31.77.65h0a.68.68,0,0,1-.77.64A1.31,1.31,0,0,1,87.48,61.86Z"/><path class="b770929d-34e2-4069-ac51-ada931c90e82" d="M89.79,61.76V60.65h-.24V60.5h.24V60H90v.54h.59v.15H90v1.09c0,.25.14.33.34.33a.51.51,0,0,0,.25-.06v.16a.64.64,0,0,1-.28.06A.44.44,0,0,1,89.79,61.76Z"/><path class="b770929d-34e2-4069-ac51-ada931c90e82" d="M90.91,62.67l0-.15a.54.54,0,0,0,.29.07c.18,0,.3-.11.42-.4l-.81-1.69h.19l.7,1.52.61-1.52h.18l-.73,1.76c-.15.35-.32.48-.57.48A.72.72,0,0,1,90.91,62.67Z"/><path class="b770929d-34e2-4069-ac51-ada931c90e82" d="M93,59.77h.16V62.2H93Z"/><path class="b770929d-34e2-4069-ac51-ada931c90e82" d="M93.71,61.35h0a.83.83,0,0,1,.8-.88.8.8,0,0,1,.78.89v.06H93.88a.67.67,0,0,0,.67.67.76.76,0,0,0,.58-.26l.11.1a.91.91,0,0,1-.7.32A.84.84,0,0,1,93.71,61.35Zm1.4-.08a.62.62,0,0,0-.6-.66.66.66,0,0,0-.63.66Z"/><path class="b770929d-34e2-4069-ac51-ada931c90e82" d="M48.33,61.86l.11-.13a1.15,1.15,0,0,0,.84.34c.35,0,.59-.19.59-.46h0c0-.25-.13-.39-.66-.5s-.79-.3-.79-.65h0a.67.67,0,0,1,.75-.61,1.15,1.15,0,0,1,.8.28l-.11.14a1,1,0,0,0-.69-.27c-.35,0-.58.2-.58.44h0c0,.25.13.4.69.51s.76.3.76.65h0a.68.68,0,0,1-.77.64A1.31,1.31,0,0,1,48.33,61.86Z"/><path class="b770929d-34e2-4069-ac51-ada931c90e82" d="M50.65,61.76V60.64h-.24v-.15h.24V60h.17v.54h.59v.15h-.59v1.1c0,.25.14.33.34.33a.51.51,0,0,0,.25-.06v.16a.64.64,0,0,1-.28.06A.44.44,0,0,1,50.65,61.76Z"/><path class="b770929d-34e2-4069-ac51-ada931c90e82" d="M51.77,62.67l.06-.15a.52.52,0,0,0,.29.07c.17,0,.29-.11.42-.4l-.82-1.7h.19L52.62,62l.61-1.53h.18l-.74,1.77c-.15.35-.32.48-.56.48A.77.77,0,0,1,51.77,62.67Z"/><path class="b770929d-34e2-4069-ac51-ada931c90e82" d="M53.89,59.76h.16V62.2h-.16Z"/><path class="b770929d-34e2-4069-ac51-ada931c90e82" d="M54.58,61.35h0a.85.85,0,0,1,.81-.89.81.81,0,0,1,.78.89.17.17,0,0,1,0,.07H54.75a.67.67,0,0,0,.67.67.76.76,0,0,0,.58-.26l.12.1a.93.93,0,0,1-.71.32A.85.85,0,0,1,54.58,61.35ZM56,61.26a.63.63,0,0,0-.61-.66.67.67,0,0,0-.63.66Z"/><polyline class="b770929d-34e2-4069-ac51-ada931c90e82" points="57.48 61.29 58.03 60.75 58.58 61.29 58.58 61.29 58.03 61.84 57.48 61.29"/><polyline class="b770929d-34e2-4069-ac51-ada931c90e82" points="79.02 61.29 79.57 60.75 80.11 61.29 80.11 61.29 79.57 61.84 79.02 61.29"/><path class="b770929d-34e2-4069-ac51-ada931c90e82" d="M33.52,41.68h6c3.58,0,5.84,2,5.84,5v0c0,3.38-2.76,5.14-6.14,5.14H36.22v4.84h-2.7Zm5.83,7.83c2,0,3.32-1.12,3.32-2.69v0c0-1.76-1.3-2.68-3.32-2.68H36.22v5.42Z"/><path class="b770929d-34e2-4069-ac51-ada931c90e82" d="M48,41.74h2.86l4.66,7.09,4.67-7.09H63v15H60.31V46l-4.84,7.07h-.08l-4.8-7V56.73H48Z"/><path class="b770929d-34e2-4069-ac51-ada931c90e82" d="M65.53,49.28v0a7.5,7.5,0,0,1,7.81-7.51A8.07,8.07,0,0,1,79.27,44l-1.71,1.89a6.14,6.14,0,0,0-4.24-1.81,5,5,0,0,0-5,5.13v0a5,5,0,0,0,5,5.17,6.07,6.07,0,0,0,4.35-1.89l1.71,1.66a8,8,0,0,1-6.15,2.57A7.46,7.46,0,0,1,65.53,49.28Z"/><path class="b770929d-34e2-4069-ac51-ada931c90e82" d="M81.94,50.23v-8.5h2.7v8.4c0,2.74,1.48,4.22,3.9,4.22s3.87-1.39,3.87-4.12v-8.5h2.7v8.38c0,4.41-2.59,6.62-6.62,6.62S81.94,54.52,81.94,50.23Z"/><path class="bc03911b-8da3-4caa-8e9f-dda2f1254e49" d="M51,35.58h.22l1.27,1.87,1.27-1.87h.22v3.16H53.7V36l-1.25,1.82h0L51.18,36v2.75H51Z"/><path class="bc03911b-8da3-4caa-8e9f-dda2f1254e49" d="M54.64,38.07h0c0-.48.41-.75,1-.75a2.72,2.72,0,0,1,.77.1v-.1a.66.66,0,0,0-.76-.7,1.51,1.51,0,0,0-.72.18l-.09-.19a1.87,1.87,0,0,1,.82-.2,1,1,0,0,1,.73.25.91.91,0,0,1,.24.65v1.44h-.22v-.38a1.05,1.05,0,0,1-.88.44A.81.81,0,0,1,54.64,38.07Zm1.77-.19v-.26a3,3,0,0,0-.78-.11c-.49,0-.76.22-.76.54h0c0,.33.32.53.67.53A.79.79,0,0,0,56.41,37.88Z"/><path class="bc03911b-8da3-4caa-8e9f-dda2f1254e49" d="M57.42,36.44h.22v.42a.92.92,0,0,1,.84-.48.88.88,0,0,1,.92.95v1.41h-.22V37.37a.71.71,0,0,0-.74-.79.8.8,0,0,0-.8.83v1.33h-.22Z"/><path class="bc03911b-8da3-4caa-8e9f-dda2f1254e49" d="M60,38.07h0c0-.48.41-.75,1-.75a2.77,2.77,0,0,1,.77.1v-.1a.66.66,0,0,0-.76-.7,1.58,1.58,0,0,0-.73.18l-.08-.19a1.87,1.87,0,0,1,.82-.2,1,1,0,0,1,.73.25.9.9,0,0,1,.23.65v1.44h-.21v-.38a1.06,1.06,0,0,1-.88.44A.81.81,0,0,1,60,38.07Zm1.77-.19v-.26a3,3,0,0,0-.78-.11c-.49,0-.76.22-.76.54h0c0,.33.32.53.67.53A.79.79,0,0,0,61.78,37.88Z"/><path class="bc03911b-8da3-4caa-8e9f-dda2f1254e49" d="M62.75,39.12l.13-.18a1.51,1.51,0,0,0,.93.33.83.83,0,0,0,.9-.9V38a1.15,1.15,0,0,1-1,.53,1.1,1.1,0,0,1-1.11-1.09h0a1.1,1.1,0,0,1,1.11-1.09,1.13,1.13,0,0,1,1,.52v-.46h.23v1.94a1.07,1.07,0,0,1-.3.79,1.21,1.21,0,0,1-.84.3A1.68,1.68,0,0,1,62.75,39.12Zm2-1.64h0a.92.92,0,0,0-1-.88.86.86,0,0,0-.89.88h0a.89.89,0,0,0,.89.89A.93.93,0,0,0,64.73,37.48Z"/><path class="bc03911b-8da3-4caa-8e9f-dda2f1254e49" d="M65.62,37.59h0a1.13,1.13,0,0,1,1.09-1.2,1.1,1.1,0,0,1,1.06,1.21v.09H65.85a.92.92,0,0,0,.91.91,1,1,0,0,0,.79-.36l.15.13a1.21,1.21,0,0,1-1,.44A1.15,1.15,0,0,1,65.62,37.59Zm1.91-.11a.86.86,0,0,0-.83-.9.91.91,0,0,0-.85.9Z"/><path class="bc03911b-8da3-4caa-8e9f-dda2f1254e49" d="M68.27,37.6h0a1.16,1.16,0,0,1,1.12-1.21,1.11,1.11,0,0,1,1,.55V35.44h.22v3.3h-.22v-.51a1.12,1.12,0,0,1-1,.57A1.15,1.15,0,0,1,68.27,37.6Zm2.08,0h0a1,1,0,0,0-.94-1,.9.9,0,0,0-.9,1h0a.93.93,0,0,0,.9,1A1,1,0,0,0,70.35,37.59Z"/><path class="bc03911b-8da3-4caa-8e9f-dda2f1254e49" d="M73,38.24v.5h-.22v-3.3H73V37a1.13,1.13,0,0,1,1-.57,1.14,1.14,0,0,1,1.12,1.2h0a1.15,1.15,0,0,1-1.12,1.21A1.12,1.12,0,0,1,73,38.24Zm1.83-.64h0a.93.93,0,0,0-.9-1,1,1,0,0,0-.94,1h0a1,1,0,0,0,.94,1A.89.89,0,0,0,74.81,37.6Z"/><path class="bc03911b-8da3-4caa-8e9f-dda2f1254e49" d="M75.46,39.38l.07-.2a.84.84,0,0,0,.4.09c.24,0,.4-.14.57-.54l-1.11-2.29h.26l1,2.06.83-2.06h.24l-1,2.38c-.2.49-.44.66-.77.66A1,1,0,0,1,75.46,39.38Z"/><rect class="fb0cf674-a761-4ebb-a986-c85d670092a5" x="-3.08" y="45.22" width="16.31" height="0.99" transform="translate(-40.83 42.78) rotate(-80)"/><rect class="b0a7a9cf-4123-419d-92a9-907ecbf73af8" x="14.56" y="50.69" width="20.27" height="0.99" transform="translate(-30 66.61) rotate(-80)"/><rect class="f3b56592-a63f-41df-8172-497f6ce45f4c" x="16.24" y="29.33" width="0.99" height="17.3" transform="translate(-23.58 47.87) rotate(-80)"/><rect class="ed1a7666-534f-4e9e-90b6-22b0e514c0ba" x="12.23" y="49.95" width="0.99" height="17.75" transform="translate(-46.42 47.68) rotate(-67.12)"/><path class="e72f2c2d-d299-46d0-8df8-5dad500fbbe8" d="M59.8,59.76H60V62h1.41v.17H59.8Z"/><path class="e72f2c2d-d299-46d0-8df8-5dad500fbbe8" d="M61.9,59.73h.21V60H61.9Zm0,.69h.17v1.76h-.17Z"/><path class="e72f2c2d-d299-46d0-8df8-5dad500fbbe8" d="M62.57,60.42h.2L63.43,62l.68-1.57h.19l-.79,1.77h-.15Z"/><path class="e72f2c2d-d299-46d0-8df8-5dad500fbbe8" d="M64.76,59.73H65V60h-.21Zm0,.69H65v1.76h-.17Z"/><path class="e72f2c2d-d299-46d0-8df8-5dad500fbbe8" d="M65.62,60.42h.16v.33a.7.7,0,0,1,.64-.37.67.67,0,0,1,.7.72v1.08H67v-1a.54.54,0,0,0-.56-.6.6.6,0,0,0-.61.63v1h-.16Z"/><path class="e72f2c2d-d299-46d0-8df8-5dad500fbbe8" d="M67.69,62.47l.1-.14a1.18,1.18,0,0,0,.71.25.63.63,0,0,0,.69-.69v-.25a.86.86,0,0,1-.73.41.84.84,0,0,1-.85-.83h0a.84.84,0,0,1,.85-.83.85.85,0,0,1,.73.39v-.35h.17V61.9a.82.82,0,0,1-.22.6.9.9,0,0,1-.64.23A1.42,1.42,0,0,1,67.69,62.47Zm1.51-1.26h0a.69.69,0,0,0-.72-.67.65.65,0,0,0-.68.66h0a.66.66,0,0,0,.68.67A.7.7,0,0,0,69.2,61.21Z"/><path class="e72f2c2d-d299-46d0-8df8-5dad500fbbe8" d="M81.34,59.78h.18V62h1.41v.17H81.34Z"/><path class="e72f2c2d-d299-46d0-8df8-5dad500fbbe8" d="M83.43,59.75h.22V60h-.22Zm0,.69h.16V62.2h-.16Z"/><path class="e72f2c2d-d299-46d0-8df8-5dad500fbbe8" d="M84.39,60.59h-.25v-.15h.25v-.17a.64.64,0,0,1,.16-.46.5.5,0,0,1,.37-.14.71.71,0,0,1,.26,0v.16a.82.82,0,0,0-.26,0c-.24,0-.36.14-.36.44v.17h.62v.15h-.62V62.2h-.17Z"/><path class="e72f2c2d-d299-46d0-8df8-5dad500fbbe8" d="M85.38,61.32h0a.86.86,0,0,1,.84-.91.83.83,0,0,1,.8.92v.07H85.56a.7.7,0,0,0,.69.69.77.77,0,0,0,.6-.28l.12.11a.94.94,0,0,1-.73.33A.87.87,0,0,1,85.38,61.32Zm1.46-.09a.65.65,0,0,0-.63-.68.69.69,0,0,0-.65.68Z"/><path class="e72f2c2d-d299-46d0-8df8-5dad500fbbe8" d="M33.54,59.78h.18V62h1.42v.17h-1.6Z"/><path class="e72f2c2d-d299-46d0-8df8-5dad500fbbe8" d="M35.48,61.32h0a.86.86,0,0,1,.84-.91.83.83,0,0,1,.8.92v.07H35.66a.7.7,0,0,0,.69.69A.79.79,0,0,0,37,61.8l.11.11a.93.93,0,0,1-.72.33A.88.88,0,0,1,35.48,61.32Zm1.46-.09a.65.65,0,0,0-.63-.68.69.69,0,0,0-.65.68Z"/><path class="e72f2c2d-d299-46d0-8df8-5dad500fbbe8" d="M37.47,61.69h0c0-.37.32-.57.77-.57a2.24,2.24,0,0,1,.58.07v-.07a.5.5,0,0,0-.57-.54,1.25,1.25,0,0,0-.56.14l-.06-.15a1.39,1.39,0,0,1,.63-.15.8.8,0,0,1,.55.19.67.67,0,0,1,.18.5v1.1h-.17v-.3a.79.79,0,0,1-.67.34A.61.61,0,0,1,37.47,61.69Zm1.36-.15v-.2a2.29,2.29,0,0,0-.6-.08c-.37,0-.58.16-.58.41h0c0,.25.24.4.51.4A.61.61,0,0,0,38.83,61.54Z"/><path class="e72f2c2d-d299-46d0-8df8-5dad500fbbe8" d="M39.6,60.44h.17v.5a.83.83,0,0,1,.77-.53v.19h0a.78.78,0,0,0-.76.88v.72H39.6Z"/><path class="e72f2c2d-d299-46d0-8df8-5dad500fbbe8" d="M41,60.44h.17v.33a.7.7,0,0,1,.64-.37.67.67,0,0,1,.7.72V62.2h-.17V61.15a.54.54,0,0,0-.56-.6.6.6,0,0,0-.61.63v1H41Z"/><path class="e72f2c2d-d299-46d0-8df8-5dad500fbbe8" d="M43.09,59.75h.21V60h-.21Zm0,.69h.17V62.2h-.17Z"/><path class="e72f2c2d-d299-46d0-8df8-5dad500fbbe8" d="M44,60.44h.16v.33a.7.7,0,0,1,.64-.37.67.67,0,0,1,.7.72V62.2h-.17V61.15a.54.54,0,0,0-.56-.6.6.6,0,0,0-.61.63v1H44Z"/><path class="e72f2c2d-d299-46d0-8df8-5dad500fbbe8" d="M46,62.49l.1-.14a1.16,1.16,0,0,0,.71.25.63.63,0,0,0,.69-.69v-.25a.86.86,0,0,1-.73.41.84.84,0,0,1-.85-.83h0a.83.83,0,0,1,.85-.83.85.85,0,0,1,.73.39v-.35h.17v1.48a.82.82,0,0,1-.22.6.9.9,0,0,1-.64.23A1.33,1.33,0,0,1,46,62.49Zm1.51-1.26h0a.69.69,0,0,0-.72-.67.65.65,0,0,0-.68.66h0a.66.66,0,0,0,.68.67A.7.7,0,0,0,47.53,61.23Z"/><path class="bc03911b-8da3-4caa-8e9f-dda2f1254e49" d="M69.94,61.84l.11-.13a1.15,1.15,0,0,0,.84.34c.35,0,.58-.19.58-.46h0c0-.24-.13-.39-.65-.49s-.79-.3-.79-.66h0a.68.68,0,0,1,.75-.62,1.17,1.17,0,0,1,.8.29l-.11.13a1,1,0,0,0-.7-.26c-.34,0-.57.2-.57.44h0c0,.24.13.39.68.51s.77.3.77.64h0a.69.69,0,0,1-.77.64A1.31,1.31,0,0,1,69.94,61.84Z"/><path class="bc03911b-8da3-4caa-8e9f-dda2f1254e49" d="M72.25,61.74V60.63H72v-.15h.24v-.54h.17v.54H73v.15h-.59v1.09c0,.25.14.33.34.33A.51.51,0,0,0,73,62v.16a.64.64,0,0,1-.28.06A.44.44,0,0,1,72.25,61.74Z"/><path class="bc03911b-8da3-4caa-8e9f-dda2f1254e49" d="M73.37,62.65l0-.15a.54.54,0,0,0,.29.07c.18,0,.3-.11.42-.4l-.81-1.69h.19l.7,1.52.61-1.52H75l-.73,1.76c-.15.35-.32.48-.57.48A.72.72,0,0,1,73.37,62.65Z"/><path class="bc03911b-8da3-4caa-8e9f-dda2f1254e49" d="M75.48,59.75h.16v2.43h-.16Z"/><path class="bc03911b-8da3-4caa-8e9f-dda2f1254e49" d="M76.17,61.33h0a.83.83,0,0,1,.8-.88.8.8,0,0,1,.78.89v.06H76.34a.67.67,0,0,0,.67.67.76.76,0,0,0,.58-.26l.11.1a.9.9,0,0,1-.7.32A.84.84,0,0,1,76.17,61.33Zm1.41-.08a.64.64,0,0,0-.61-.66.66.66,0,0,0-.63.66Z"/><path class="bc03911b-8da3-4caa-8e9f-dda2f1254e49" d="M87.48,61.86l.11-.13a1.15,1.15,0,0,0,.84.34c.35,0,.58-.19.58-.46h0c0-.24-.13-.39-.65-.49s-.79-.3-.79-.66h0a.68.68,0,0,1,.75-.62,1.17,1.17,0,0,1,.8.29l-.11.13a1,1,0,0,0-.7-.26c-.34,0-.57.2-.57.44h0c0,.24.13.39.68.5s.77.31.77.65h0a.68.68,0,0,1-.77.64A1.31,1.31,0,0,1,87.48,61.86Z"/><path class="bc03911b-8da3-4caa-8e9f-dda2f1254e49" d="M89.79,61.76V60.65h-.24V60.5h.24V60H90v.54h.59v.15H90v1.09c0,.25.14.33.34.33a.51.51,0,0,0,.25-.06v.16a.64.64,0,0,1-.28.06A.44.44,0,0,1,89.79,61.76Z"/><path class="bc03911b-8da3-4caa-8e9f-dda2f1254e49" d="M90.91,62.67l0-.15a.54.54,0,0,0,.29.07c.18,0,.3-.11.42-.4l-.81-1.69h.19l.7,1.52.61-1.52h.18l-.73,1.76c-.15.35-.32.48-.57.48A.72.72,0,0,1,90.91,62.67Z"/><path class="bc03911b-8da3-4caa-8e9f-dda2f1254e49" d="M93,59.77h.16V62.2H93Z"/><path class="bc03911b-8da3-4caa-8e9f-dda2f1254e49" d="M93.71,61.35h0a.83.83,0,0,1,.8-.88.8.8,0,0,1,.78.89v.06H93.88a.67.67,0,0,0,.67.67.76.76,0,0,0,.58-.26l.11.1a.91.91,0,0,1-.7.32A.84.84,0,0,1,93.71,61.35Zm1.4-.08a.62.62,0,0,0-.6-.66.66.66,0,0,0-.63.66Z"/><path class="bc03911b-8da3-4caa-8e9f-dda2f1254e49" d="M48.33,61.86l.11-.13a1.15,1.15,0,0,0,.84.34c.35,0,.59-.19.59-.46h0c0-.25-.13-.39-.66-.5s-.79-.3-.79-.65h0a.67.67,0,0,1,.75-.61,1.15,1.15,0,0,1,.8.28l-.11.14a1,1,0,0,0-.69-.27c-.35,0-.58.2-.58.44h0c0,.25.13.4.69.51s.76.3.76.65h0a.68.68,0,0,1-.77.64A1.31,1.31,0,0,1,48.33,61.86Z"/><path class="bc03911b-8da3-4caa-8e9f-dda2f1254e49" d="M50.65,61.76V60.64h-.24v-.15h.24V60h.17v.54h.59v.15h-.59v1.1c0,.25.14.33.34.33a.51.51,0,0,0,.25-.06v.16a.64.64,0,0,1-.28.06A.44.44,0,0,1,50.65,61.76Z"/><path class="bc03911b-8da3-4caa-8e9f-dda2f1254e49" d="M51.77,62.67l.06-.15a.52.52,0,0,0,.29.07c.17,0,.29-.11.42-.4l-.82-1.7h.19L52.62,62l.61-1.53h.18l-.74,1.77c-.15.35-.32.48-.56.48A.77.77,0,0,1,51.77,62.67Z"/><path class="bc03911b-8da3-4caa-8e9f-dda2f1254e49" d="M53.89,59.76h.16V62.2h-.16Z"/><path class="bc03911b-8da3-4caa-8e9f-dda2f1254e49" d="M54.58,61.35h0a.85.85,0,0,1,.81-.89.81.81,0,0,1,.78.89.17.17,0,0,1,0,.07H54.75a.67.67,0,0,0,.67.67.76.76,0,0,0,.58-.26l.12.1a.93.93,0,0,1-.71.32A.85.85,0,0,1,54.58,61.35ZM56,61.26a.63.63,0,0,0-.61-.66.67.67,0,0,0-.63.66Z"/><polyline class="bc03911b-8da3-4caa-8e9f-dda2f1254e49" points="57.48 61.29 58.03 60.75 58.58 61.29 58.58 61.29 58.03 61.84 57.48 61.29"/><polyline class="bc03911b-8da3-4caa-8e9f-dda2f1254e49" points="79.02 61.29 79.57 60.75 80.11 61.29 80.11 61.29 79.57 61.84 79.02 61.29"/><path class="bc03911b-8da3-4caa-8e9f-dda2f1254e49" d="M33.52,41.68h6c3.58,0,5.84,2,5.84,5v0c0,3.38-2.76,5.14-6.14,5.14H36.22v4.84h-2.7Zm5.83,7.83c2,0,3.32-1.12,3.32-2.69v0c0-1.76-1.3-2.68-3.32-2.68H36.22v5.42Z"/><path class="bc03911b-8da3-4caa-8e9f-dda2f1254e49" d="M48,41.74h2.86l4.66,7.09,4.67-7.09H63v15H60.31V46l-4.84,7.07h-.08l-4.8-7V56.73H48Z"/><path class="bc03911b-8da3-4caa-8e9f-dda2f1254e49" d="M65.53,49.28v0a7.5,7.5,0,0,1,7.81-7.51A8.07,8.07,0,0,1,79.27,44l-1.71,1.89a6.14,6.14,0,0,0-4.24-1.81,5,5,0,0,0-5,5.13v0a5,5,0,0,0,5,5.17,6.07,6.07,0,0,0,4.35-1.89l1.71,1.66a8,8,0,0,1-6.15,2.57A7.46,7.46,0,0,1,65.53,49.28Z"/><path class="bc03911b-8da3-4caa-8e9f-dda2f1254e49" d="M81.94,50.23v-8.5h2.7v8.4c0,2.74,1.48,4.22,3.9,4.22s3.87-1.39,3.87-4.12v-8.5h2.7v8.38c0,4.41-2.59,6.62-6.62,6.62S81.94,54.52,81.94,50.23Z"/></g></g></svg>