<?xml version="1.0" encoding="UTF-8" standalone="no"?>
<svg
   viewBox="0 0 480 480"
   version="1.1"
   id="svg93"
   xmlns="http://www.w3.org/2000/svg"
   xmlns:svg="http://www.w3.org/2000/svg">
  <defs
     id="defs55">
    <style
       id="style53">.cls-1{fill:#ae6aac;}.cls-2{fill:#e2e2e2;}.cls-10,.cls-11,.cls-12,.cls-13,.cls-14,.cls-15,.cls-2,.cls-3,.cls-4,.cls-6,.cls-7,.cls-8,.cls-9{fill-rule:evenodd;}.cls-3{fill:#c9c9c9;}.cls-4{fill:#f9f9fa;}.cls-5{fill:#343535;}.cls-6{fill:#282828;}.cls-7{fill:#a5a4a4;}.cls-8{fill:#aeadae;}.cls-9{fill:#fff;}.cls-10{fill:#444445;}.cls-11{fill:#171717;}.cls-12{fill:#8e8e8e;}.cls-13{fill:#4c4c4d;}.cls-14{fill:#515251;}.cls-15{fill:#181818;}</style>
  </defs>
  <g
     id="g36976"
     transform="matrix(0.67605634,0,0,0.67605634,76.313239,0)">
    <path
       style="fill:none;stroke:#000000;stroke-width:1px;stroke-linecap:butt;stroke-linejoin:miter;stroke-opacity:1"
       d="M 0,240 H 480"
       id="path856" />
    <path
       style="fill:#ae6aac;fill-opacity:1;stroke:none;stroke-width:1px;stroke-linecap:butt;stroke-linejoin:miter;stroke-opacity:1"
       d="M 0,240 240,710 480,240"
       id="path29835" />
    <g
       id="Layer_2"
       data-name="Layer 2">
      <g
         id="Layer_1-2"
         data-name="Layer 1">
        <circle
           class="cls-1"
           cx="240"
           cy="240"
           r="240"
           id="circle57" />
        <path
           class="cls-2"
           d="m 242.12,210.71 v 0 c 17.49,0 38.75,14.41 36.91,31.8 l -5.11,48.57 c -1.83,17.39 -14.31,31.81 -31.8,31.81 v 0 c -17.49,0 -30,-14.41 -31.8,-31.81 l -5.12,-48.57 c -1.83,-17.4 19.43,-31.8 36.92,-31.8 z"
           id="path59" />
        <path
           class="cls-3"
           d="m 242.12,210.71 c 17.49,0 38.75,14.41 36.91,31.8 l -5.11,48.57 c -1.83,17.39 -14.31,31.81 -31.8,31.81 z"
           id="path61" />
        <path
           class="cls-3"
           d="m 256.33,300.78 h 98.79 a 20,20 0 0 1 20,20 v 0 a 20,20 0 0 1 -20,20 h -98.79 a 20,20 0 0 1 -20,-20 v 0 a 20,20 0 0 1 20,-20 z"
           id="path63" />
        <path
           class="cls-4"
           d="m 256.33,300.78 h 98.79 a 20,20 0 0 1 20,20 H 236.37 a 20,20 0 0 1 19.96,-20 z"
           id="path65" />
        <rect
           class="cls-5"
           x="76.68"
           y="166.75999"
           width="184.72"
           height="70.980003"
           rx="7.0599999"
           id="rect67" />
        <path
           class="cls-6"
           d="M 253.38,171.13 H 403 a 6.21,6.21 0 0 1 6.18,6.19 v 49.86 A 6.21,6.21 0 0 1 403,233.37 H 253.38 a 6.21,6.21 0 0 1 -6.19,-6.19 v -49.86 a 6.21,6.21 0 0 1 6.19,-6.19 z"
           id="path69" />
        <path
           class="cls-7"
           d="m 103.07,144.4 h 278.09 a 11.53,11.53 0 0 1 11.5,11.5 v 92.7 a 11.53,11.53 0 0 1 -11.5,11.5 H 103.07 a 11.53,11.53 0 0 1 -11.5,-11.5 v -92.7 a 11.53,11.53 0 0 1 11.5,-11.5 z"
           id="path71" />
        <path
           class="cls-8"
           d="m 242.12,144.4 h 139 a 11.53,11.53 0 0 1 11.5,11.5 v 92.7 a 11.53,11.53 0 0 1 -11.5,11.5 h -139 z"
           id="path73" />
        <path
           class="cls-9"
           d="m 65.53,132.89 h 319 a 11.55,11.55 0 0 1 11.51,11.51 v 92.7 a 11.54,11.54 0 0 1 -11.51,11.5 H 157.88 L 70.65,187.22 C 65.5,183.6 60.17,181.95 59.15,175.72 L 54,144.4 c -1,-6.24 5.21,-11.51 11.53,-11.51 z"
           id="path75" />
        <path
           class="cls-3"
           d="m 242.12,132.89 h 142.42 a 11.55,11.55 0 0 1 11.51,11.51 v 92.7 a 11.54,11.54 0 0 1 -11.51,11.5 H 242.12 Z"
           id="path77" />
        <path
           class="cls-10"
           d="m 389.63,274.73 v 92 a 46,46 0 0 1 0,-92 z"
           id="path79" />
        <path
           class="cls-11"
           d="m 394.37,260.8 h 8 c 5.85,0 10.64,5.41 10.64,11.91 v 96.05 c 0,6.51 -4.83,11.92 -10.64,11.92 h -8 c -5.81,0 -10.64,-5.36 -10.64,-11.92 v -96.05 c 0,-6.55 4.79,-11.91 10.64,-11.91 z"
           id="path81" />
        <path
           class="cls-12"
           d="M 242.12,352.65 A 33.08,33.08 0 1 0 209,319.57 a 33.14,33.14 0 0 0 33.12,33.08 z"
           id="path83" />
        <path
           class="cls-13"
           d="m 242.12,286.5 a 33.08,33.08 0 1 1 0,66.16 z"
           id="path85" />
        <path
           class="cls-14"
           d="m 242.12,338.22 a 18.65,18.65 0 1 0 -18.65,-18.65 18.68,18.68 0 0 0 18.65,18.65 z"
           id="path87" />
        <path
           class="cls-15"
           d="m 242.12,300.93 a 18.65,18.65 0 0 1 0,37.29 z"
           id="path89" />
      </g>
    </g>
  </g>
</svg>
