<svg id="Layer_1" data-name="Layer 1" xmlns="http://www.w3.org/2000/svg" viewBox="0 0 480 480"><defs><style>.cls-1{fill:#6252a3;}.cls-2{fill:#eba8cb;}.cls-3{fill:#272924;}.cls-4{fill:#7f8188;}.cls-5{fill:#d6dce7;}.cls-6{fill:#a7d5f2;}.cls-7{fill:#a7abb4;}</style></defs><circle class="cls-1" cx="240" cy="240" r="240"/><path class="cls-2" d="M443,273c0,29-27.6,52.55-61.65,52.55H107.87c-34,0-61.63-23.52-61.63-52.55V194.48c0-29,27.59-52.54,61.63-52.54H381.3c34.05,0,61.65,23.52,61.65,52.54Z"/><rect class="cls-3" x="249.28" y="141.07" width="53.82" height="184.49"/><path class="cls-4" d="M155.74,325.55a33.49,33.49,0,1,1-33.48-33.48A33.5,33.5,0,0,1,155.74,325.55Z"/><path class="cls-5" d="M141.09,325.55a18.83,18.83,0,1,1-18.83-18.83A18.84,18.84,0,0,1,141.09,325.55Z"/><path class="cls-4" d="M377.86,323.64a33.48,33.48,0,1,1-33.49-33.48A33.5,33.5,0,0,1,377.86,323.64Z"/><path class="cls-5" d="M363.21,323.64a18.84,18.84,0,1,1-18.84-18.83A18.83,18.83,0,0,1,363.21,323.64Z"/><rect class="cls-6" x="251.1" y="162.13" width="50.18" height="73.63"/><rect class="cls-6" x="129.43" y="162.13" width="50.18" height="73.63"/><rect class="cls-6" x="190.27" y="162.13" width="50.18" height="73.63"/><path class="cls-6" d="M118.78,162.13h-20a32.38,32.38,0,0,0-32.34,32.35v41.28h52.33Z"/><path class="cls-6" d="M331.91,162.13h-20v73.63h52.34V194.48A32.39,32.39,0,0,0,331.91,162.13Z"/><path class="cls-7" d="M190.27,303.82a2.68,2.68,0,0,1-2.67-2.68V248.59a2.67,2.67,0,1,1,5.34,0v52.55A2.67,2.67,0,0,1,190.27,303.82Z"/><path class="cls-7" d="M243,303.82a2.68,2.68,0,0,1-2.67-2.68V248.59a2.67,2.67,0,1,1,5.33,0v52.55A2.67,2.67,0,0,1,243,303.82Z"/><path class="cls-7" d="M218,252.69a4.11,4.11,0,0,1-4.1,4.1H203.44a4.11,4.11,0,0,1-4.1-4.1h0a4.09,4.09,0,0,1,4.1-4.1h10.43a4.09,4.09,0,0,1,4.1,4.1Z"/></svg>