<svg id="Layer_1" data-name="Layer 1" xmlns="http://www.w3.org/2000/svg" viewBox="0 0 480 480"><defs><style>.cls-1{fill:#ffefa1;}.cls-2{fill:#e0e1e0;}.cls-3{fill:#3f475c;}.cls-4{fill:#316c35;}.cls-5{fill:#d2d2d2;}.cls-6{fill:#3f8940;}.cls-7{fill:#fffefe;}.cls-8{fill:#b3b3ae;}.cls-9{fill:#fff;}.cls-10{fill:#e74d3d;}.cls-11{fill:#56a8dd;}.cls-12{fill:#4d67b0;}</style></defs><circle class="cls-1" cx="240" cy="240" r="240"/><circle class="cls-2" cx="326.48" cy="254.05" r="21.88"/><path class="cls-3" d="M326.46,232.3l9.46-33.76a19.29,19.29,0,0,1,18.59-14.1h6V232.3Z"/><path class="cls-3" d="M228.28,267.28V230.51a19.15,19.15,0,0,1,19.15-19.15h0v55.92Z"/><polygon class="cls-4" points="168.19 267.28 247.43 267.28 247.43 326.84 197.68 326.84 168.19 267.28"/><circle class="cls-3" cx="112.35" cy="337.46" r="37.54"/><circle class="cls-5" cx="112.35" cy="337.46" r="19.29"/><path class="cls-3" d="M121,337.46a8.61,8.61,0,1,1-8.6-8.61A8.6,8.6,0,0,1,121,337.46Z"/><path class="cls-4" d="M113.7,309.19,149.55,324A37.51,37.51,0,0,0,76.2,309.19Z"/><path class="cls-6" d="M144.52,343.59l-50-88a18.25,18.25,0,0,1-.09-17.88L152.3,133.58h18.54L150.5,231.71l55.64,111.88Z"/><path class="cls-6" d="M206.14,343.59h72.4l99.55-57.48V133.58H360.51V232.3H316.09a31.43,31.43,0,0,0-24.85,12.2l-43.81,56.61v25.73H197.68Z"/><polygon class="cls-4" points="247.43 301.11 247.43 133.58 262.98 133.58 262.98 281.01 247.43 301.11"/><path class="cls-3" d="M152.3,133.58H378.09V107.07a11.79,11.79,0,0,0-11.78-11.78h-107a105.91,105.91,0,0,0-23.4,2.62l-51.38,11.66a49.51,49.51,0,0,0-32.19,24Z"/><polygon class="cls-6" points="152.3 133.58 97.45 232.3 150.8 232.3 150.5 231.71 170.84 133.58 152.3 133.58"/><rect class="cls-7" x="360.51" y="133.58" width="17.58" height="98.72"/><rect class="cls-8" x="247.43" y="133.58" width="15.56" height="98.72"/><path class="cls-4" d="M133.44,276.58H121V245.17h12.49a15.7,15.7,0,0,1,15.71,15.7h0A15.71,15.71,0,0,1,133.44,276.58Z"/><path class="cls-9" d="M109.93,245.17h11a0,0,0,0,1,0,0v31.41a0,0,0,0,1,0,0h-11a1.17,1.17,0,0,1-1.17-1.17V246.33a1.17,1.17,0,0,1,1.17-1.17Z"/><rect class="cls-5" x="351.53" y="276.58" width="41.51" height="26.03" rx="1.24"/><circle class="cls-3" cx="326.46" cy="331.41" r="43.59"/><path class="cls-5" d="M348.86,331.41A22.4,22.4,0,1,1,326.46,309,22.4,22.4,0,0,1,348.86,331.41Z"/><path class="cls-3" d="M336.45,331.41a10,10,0,1,1-10-10A10,10,0,0,1,336.45,331.41Z"/><path class="cls-10" d="M378.09,238.59h12.3a1.3,1.3,0,0,1,1.3,1.3v30.9a1.3,1.3,0,0,1-1.3,1.3h-12.3a0,0,0,0,1,0,0V238.59A0,0,0,0,1,378.09,238.59Z"/><path class="cls-11" d="M102.4,223.4h18.27a10,10,0,0,0,9-5.55l29.66-59.3a12.29,12.29,0,0,0-11-17.79h0Z"/><rect class="cls-12" x="164.52" y="302.57" width="111.87" height="37.68"/></svg>