<?xml version="1.0" encoding="UTF-8" standalone="no"?>
<svg
   id="Layer_1"
   data-name="Layer 1"
   viewBox="0 0 480 480"
   version="1.1"
   xmlns="http://www.w3.org/2000/svg"
   xmlns:svg="http://www.w3.org/2000/svg">
  <defs
     id="defs36781">
    <style
       id="style36779">.cls-1{fill:#ffefa1;}.cls-2{fill:#e0e1e0;}.cls-3{fill:#3f475c;}.cls-4{fill:#316c35;}.cls-5{fill:#d2d2d2;}.cls-6{fill:#3f8940;}.cls-7{fill:#fffefe;}.cls-8{fill:#b3b3ae;}.cls-9{fill:#fff;}.cls-10{fill:#e74d3d;}.cls-11{fill:#56a8dd;}.cls-12{fill:#4d67b0;}</style>
  </defs>
  <g
     id="g48193"
     transform="matrix(0.67605634,0,0,0.67605634,82.345916,0)">
    <path
       style="fill:#ffefa1;fill-opacity:1;stroke:none;stroke-width:1px;stroke-linecap:butt;stroke-linejoin:miter;stroke-opacity:1"
       d="M 0,240 240,710 480,240"
       id="path29835" />
    <circle
       class="cls-1"
       cx="240"
       cy="240"
       r="240"
       id="circle36783" />
    <circle
       class="cls-2"
       cx="326.48001"
       cy="254.05"
       r="21.879999"
       id="circle36785" />
    <path
       class="cls-3"
       d="m 326.46,232.3 9.46,-33.76 a 19.29,19.29 0 0 1 18.59,-14.1 h 6 v 47.86 z"
       id="path36787" />
    <path
       class="cls-3"
       d="m 228.28,267.28 v -36.77 a 19.15,19.15 0 0 1 19.15,-19.15 v 0 55.92 z"
       id="path36789" />
    <polygon
       class="cls-4"
       points="247.43,326.84 197.68,326.84 168.19,267.28 247.43,267.28 "
       id="polygon36791" />
    <circle
       class="cls-3"
       cx="112.35"
       cy="337.45999"
       r="37.540001"
       id="circle36793" />
    <circle
       class="cls-5"
       cx="112.35"
       cy="337.45999"
       r="19.290001"
       id="circle36795" />
    <path
       class="cls-3"
       d="m 121,337.46 a 8.61,8.61 0 1 1 -8.6,-8.61 8.6,8.6 0 0 1 8.6,8.61 z"
       id="path36797" />
    <path
       class="cls-4"
       d="M 113.7,309.19 149.55,324 A 37.51,37.51 0 0 0 76.2,309.19 Z"
       id="path36799" />
    <path
       class="cls-6"
       d="m 144.52,343.59 -50,-88 A 18.25,18.25 0 0 1 94.43,237.71 L 152.3,133.58 h 18.54 l -20.34,98.13 55.64,111.88 z"
       id="path36801" />
    <path
       class="cls-6"
       d="m 206.14,343.59 h 72.4 l 99.55,-57.48 V 133.58 h -17.58 v 98.72 h -44.42 a 31.43,31.43 0 0 0 -24.85,12.2 l -43.81,56.61 v 25.73 h -49.75 z"
       id="path36803" />
    <polygon
       class="cls-4"
       points="262.98,133.58 262.98,281.01 247.43,301.11 247.43,133.58 "
       id="polygon36805" />
    <path
       class="cls-3"
       d="M 152.3,133.58 H 378.09 V 107.07 A 11.79,11.79 0 0 0 366.31,95.29 h -107 a 105.91,105.91 0 0 0 -23.4,2.62 l -51.38,11.66 a 49.51,49.51 0 0 0 -32.19,24 z"
       id="path36807" />
    <polygon
       class="cls-6"
       points="150.8,232.3 150.5,231.71 170.84,133.58 152.3,133.58 97.45,232.3 "
       id="polygon36809" />
    <rect
       class="cls-7"
       x="360.51001"
       y="133.58"
       width="17.58"
       height="98.720001"
       id="rect36811" />
    <rect
       class="cls-8"
       x="247.42999"
       y="133.58"
       width="15.56"
       height="98.720001"
       id="rect36813" />
    <path
       class="cls-4"
       d="M 133.44,276.58 H 121 v -31.41 h 12.49 a 15.7,15.7 0 0 1 15.71,15.7 v 0 a 15.71,15.71 0 0 1 -15.76,15.71 z"
       id="path36815" />
    <path
       class="cls-9"
       d="m 109.93,245.17 h 11 v 31.41 h -11 a 1.17,1.17 0 0 1 -1.17,-1.17 v -29.08 a 1.17,1.17 0 0 1 1.17,-1.17 z"
       id="path36817" />
    <rect
       class="cls-5"
       x="351.53"
       y="276.57999"
       width="41.509998"
       height="26.030001"
       rx="1.24"
       id="rect36819" />
    <circle
       class="cls-3"
       cx="326.45999"
       cy="331.41"
       r="43.59"
       id="circle36821" />
    <path
       class="cls-5"
       d="m 348.86,331.41 a 22.4,22.4 0 1 1 -22.4,-22.41 22.4,22.4 0 0 1 22.4,22.41 z"
       id="path36823" />
    <path
       class="cls-3"
       d="m 336.45,331.41 a 10,10 0 1 1 -10,-10 10,10 0 0 1 10,10 z"
       id="path36825" />
    <path
       class="cls-10"
       d="m 378.09,238.59 h 12.3 a 1.3,1.3 0 0 1 1.3,1.3 v 30.9 a 1.3,1.3 0 0 1 -1.3,1.3 h -12.3 z"
       id="path36827" />
    <path
       class="cls-11"
       d="m 102.4,223.4 h 18.27 a 10,10 0 0 0 9,-5.55 l 29.66,-59.3 a 12.29,12.29 0 0 0 -11,-17.79 v 0 z"
       id="path36829" />
    <rect
       class="cls-12"
       x="164.52"
       y="302.57001"
       width="111.87"
       height="37.68"
       id="rect36831" />
  </g>
</svg>
