<svg xmlns="http://www.w3.org/2000/svg" viewBox="0 0 480 480"><defs><style>.cls-1{fill:#ae6aac;}.cls-2{fill:#e2e2e2;}.cls-10,.cls-11,.cls-12,.cls-13,.cls-14,.cls-15,.cls-2,.cls-3,.cls-4,.cls-6,.cls-7,.cls-8,.cls-9{fill-rule:evenodd;}.cls-3{fill:#c9c9c9;}.cls-4{fill:#f9f9fa;}.cls-5{fill:#343535;}.cls-6{fill:#282828;}.cls-7{fill:#a5a4a4;}.cls-8{fill:#aeadae;}.cls-9{fill:#fff;}.cls-10{fill:#444445;}.cls-11{fill:#171717;}.cls-12{fill:#8e8e8e;}.cls-13{fill:#4c4c4d;}.cls-14{fill:#515251;}.cls-15{fill:#181818;}</style></defs><g id="Layer_2" data-name="Layer 2"><g id="Layer_1-2" data-name="Layer 1"><circle class="cls-1" cx="240" cy="240" r="240"/><path class="cls-2" d="M242.12,210.71h0c17.49,0,38.75,14.41,36.91,31.8l-5.11,48.57c-1.83,17.39-14.31,31.81-31.8,31.81h0c-17.49,0-30-14.41-31.8-31.81l-5.12-48.57C203.37,225.11,224.63,210.71,242.12,210.71Z"/><path class="cls-3" d="M242.12,210.71c17.49,0,38.75,14.41,36.91,31.8l-5.11,48.57c-1.83,17.39-14.31,31.81-31.8,31.81Z"/><path class="cls-3" d="M256.33,300.78h98.79a20,20,0,0,1,20,20h0a20,20,0,0,1-20,20H256.33a20,20,0,0,1-20-20h0A20,20,0,0,1,256.33,300.78Z"/><path class="cls-4" d="M256.33,300.78h98.79a20,20,0,0,1,20,20H236.37A20,20,0,0,1,256.33,300.78Z"/><rect class="cls-5" x="76.68" y="166.76" width="184.72" height="70.98" rx="7.06"/><path class="cls-6" d="M253.38,171.13H403a6.21,6.21,0,0,1,6.18,6.19v49.86a6.21,6.21,0,0,1-6.18,6.19H253.38a6.21,6.21,0,0,1-6.19-6.19V177.32A6.21,6.21,0,0,1,253.38,171.13Z"/><path class="cls-7" d="M103.07,144.4H381.16a11.53,11.53,0,0,1,11.5,11.5v92.7a11.53,11.53,0,0,1-11.5,11.5H103.07a11.53,11.53,0,0,1-11.5-11.5V155.9A11.53,11.53,0,0,1,103.07,144.4Z"/><path class="cls-8" d="M242.12,144.4h139a11.53,11.53,0,0,1,11.5,11.5v92.7a11.53,11.53,0,0,1-11.5,11.5h-139Z"/><path class="cls-9" d="M65.53,132.89h319a11.55,11.55,0,0,1,11.51,11.51v92.7a11.54,11.54,0,0,1-11.51,11.5H157.88L70.65,187.22c-5.15-3.62-10.48-5.27-11.5-11.5L54,144.4C53,138.16,59.21,132.89,65.53,132.89Z"/><path class="cls-3" d="M242.12,132.89H384.54a11.55,11.55,0,0,1,11.51,11.51v92.7a11.54,11.54,0,0,1-11.51,11.5H242.12Z"/><path class="cls-10" d="M389.63,274.73v92a46,46,0,0,1,0-92Z"/><path class="cls-11" d="M394.37,260.8h8c5.85,0,10.64,5.41,10.64,11.91v96.05c0,6.51-4.83,11.92-10.64,11.92h-8c-5.81,0-10.64-5.36-10.64-11.92V272.71C383.73,266.16,388.52,260.8,394.37,260.8Z"/><path class="cls-12" d="M242.12,352.65A33.08,33.08,0,1,0,209,319.57,33.14,33.14,0,0,0,242.12,352.65Z"/><path class="cls-13" d="M242.12,286.5a33.08,33.08,0,1,1,0,66.16Z"/><path class="cls-14" d="M242.12,338.22a18.65,18.65,0,1,0-18.65-18.65A18.68,18.68,0,0,0,242.12,338.22Z"/><path class="cls-15" d="M242.12,300.93a18.65,18.65,0,0,1,0,37.29Z"/></g></g></svg>