<?xml version="1.0" encoding="UTF-8" standalone="no"?>
<svg
   id="Layer_1"
   data-name="Layer 1"
   viewBox="0 0 480 480"
   version="1.1"
   xmlns="http://www.w3.org/2000/svg"
   xmlns:svg="http://www.w3.org/2000/svg">
  <defs
     id="defs4">
    <style
       id="style2">.cls-1{fill:#6252a3;}.cls-2{fill:#eba8cb;}.cls-3{fill:#272924;}.cls-4{fill:#7f8188;}.cls-5{fill:#d6dce7;}.cls-6{fill:#a7d5f2;}.cls-7{fill:#a7abb4;}</style>
  </defs>
  <g
     id="g422"
     transform="matrix(0.67605633,0,0,0.67670892,81.472679,-0.46333172)">
    <path
       style="fill:#6252a3"
       id="path292"
       d="M -40,681.43591 -280,819.99998 V 542.87185 Z"
       transform="matrix(0,2.0416666,-1.7216879,0,1413.22,791.66667)" />
    <circle
       class="cls-1"
       cx="240"
       cy="240"
       id="circle6"
       r="240" />
    <path
       class="cls-2"
       d="m 443,273 c 0,29 -27.6,52.55 -61.65,52.55 H 107.87 c -34,0 -61.63,-23.52 -61.63,-52.55 v -78.52 c 0,-29 27.59,-52.54 61.63,-52.54 H 381.3 c 34.05,0 61.65,23.52 61.65,52.54 z"
       id="path8" />
    <rect
       class="cls-3"
       x="249.28"
       y="141.07001"
       width="53.82"
       height="184.49001"
       id="rect10" />
    <path
       class="cls-4"
       d="m 155.74,325.55 a 33.49,33.49 0 1 1 -33.48,-33.48 33.5,33.5 0 0 1 33.48,33.48 z"
       id="path12" />
    <path
       class="cls-5"
       d="m 141.09,325.55 a 18.83,18.83 0 1 1 -18.83,-18.83 18.84,18.84 0 0 1 18.83,18.83 z"
       id="path14" />
    <path
       class="cls-4"
       d="m 377.86,323.64 a 33.48,33.48 0 1 1 -33.49,-33.48 33.5,33.5 0 0 1 33.49,33.48 z"
       id="path16" />
    <path
       class="cls-5"
       d="m 363.21,323.64 a 18.84,18.84 0 1 1 -18.84,-18.83 18.83,18.83 0 0 1 18.84,18.83 z"
       id="path18" />
    <rect
       class="cls-6"
       x="251.10001"
       y="162.13"
       width="50.18"
       height="73.629997"
       id="rect20" />
    <rect
       class="cls-6"
       x="129.42999"
       y="162.13"
       width="50.18"
       height="73.629997"
       id="rect22" />
    <rect
       class="cls-6"
       x="190.27"
       y="162.13"
       width="50.18"
       height="73.629997"
       id="rect24" />
    <path
       class="cls-6"
       d="m 118.78,162.13 h -20 a 32.38,32.38 0 0 0 -32.34,32.35 v 41.28 h 52.33 z"
       id="path26" />
    <path
       class="cls-6"
       d="m 331.91,162.13 h -20 v 73.63 h 52.34 v -41.28 a 32.39,32.39 0 0 0 -32.34,-32.35 z"
       id="path28" />
    <path
       class="cls-7"
       d="m 190.27,303.82 a 2.68,2.68 0 0 1 -2.67,-2.68 v -52.55 a 2.67,2.67 0 1 1 5.34,0 v 52.55 a 2.67,2.67 0 0 1 -2.67,2.68 z"
       id="path30" />
    <path
       class="cls-7"
       d="m 243,303.82 a 2.68,2.68 0 0 1 -2.67,-2.68 v -52.55 a 2.67,2.67 0 1 1 5.33,0 v 52.55 a 2.67,2.67 0 0 1 -2.66,2.68 z"
       id="path32" />
    <path
       class="cls-7"
       d="m 218,252.69 a 4.11,4.11 0 0 1 -4.1,4.1 h -10.46 a 4.11,4.11 0 0 1 -4.1,-4.1 v 0 a 4.09,4.09 0 0 1 4.1,-4.1 h 10.43 a 4.09,4.09 0 0 1 4.1,4.1 z"
       id="path34" />
  </g>
</svg>
